<?xml version="1.0" encoding="utf-8"?>
<svg version="1.2" baseProfile="tiny-ps" xmlns="http://www.w3.org/2000/svg" width="383px" height="314px" viewBox="0 0 383 314" preserveAspectRatio="xMidYMid meet">
 <g fill="#ffffff">
  <path d="M0 157 l0 -157 191.5 0 191.5 0 0 157 0 157 -191.5 0 -191.5 0 0 -157z m113.1 127.7 c12.8 -7.7 19.3 -12.5 28.5 -21.1 9 -8.2 11.2 -8.5 22.6 -2.6 9.3 4.9 20.8 8 29.4 8 3.5 0 6.6 0.5 7 1.1 1 1.6 2.4 -1 2.4 -4.6 0 -1.6 0.3 -4.1 0.7 -5.3 0.5 -2.1 1.1 -2.3 5.4 -2 5.5 0.3 5.4 1.1 1.9 -11.2 -1 -3.6 -2.1 -8.9 -2.4 -11.9 -0.4 -3 -1.4 -6.7 -2.2 -8.3 -1.2 -2.3 -2.1 -2.8 -5.3 -2.8 -2.6 0 -4.4 -0.7 -5.9 -2.3 -3.6 -3.9 -7.1 -12.8 -7.8 -20.2 l-0.7 -7 -2 4.5 c-1.6 3.6 -2.1 8.2 -2.9 23.9 -0.6 12.8 -1.4 20.4 -2.3 22.1 -2.1 4.1 -12.2 9 -18.4 9 -5 0 -5.1 -0.1 -5.1 -3 0 -1.7 1.8 -6.5 4 -10.8 7.3 -14.4 7.7 -22.6 1.4 -28.1 -3.8 -3.4 -5.7 -3.7 -9.4 -1.6 -1.4 0.8 -4 1.4 -5.9 1.5 l-3.4 0 0.5 -6.4 c0.8 -9 6.2 -19.9 12.8 -25.9 5.2 -4.7 6.7 -8.4 2.9 -7.2 -3.5 1.1 -13.7 7.2 -19.7 11.8 -15.7 11.9 -22 15.7 -26.2 15.7 -3.4 0 -4 -0.3 -4 -2.2 0 -2.1 -0.1 -2.1 -2 -0.3 -3.9 3.5 -7.9 13.5 -8.6 21.3 -0.7 6.9 -0.6 7.3 1.5 7.9 1.8 0.5 2.1 1.2 2.1 6.3 0 5.6 -1.2 13.8 -2.5 17.3 -0.6 1.4 -0.1 1.7 2.7 1.7 1.9 0 3.9 0.5 4.5 1.1 0.8 0.8 2 -0.1 4.4 -3.1 2.9 -3.6 3.7 -4.1 6.9 -3.8 l3.5 0.3 0.3 6.1 c0.5 9.8 -4.8 20.7 -15.7 32.7 -2.9 3.1 -4.9 5.7 -4.3 5.7 0.5 0 5.6 -2.8 11.3 -6.3z m125 -28.5 c-1.6 -3 -1.3 -11.4 0.4 -13.9 1.5 -2.1 1.4 -2.2 -1.7 -2.5 -3 -0.3 -3.3 -0.7 -4 -4.3 -0.4 -2.2 -0.7 -7.9 -0.7 -12.7 -0.1 -7.5 0.2 -9.1 1.9 -10.8 2.4 -2.4 8.2 -2.7 10 -0.5 1.3 1.6 1 18.3 -0.5 22 -1.5 3.7 1.2 0.3 4.7 -6 3.2 -5.7 3.6 -6 7.5 -6.3 3.9 -0.3 4.3 -0.1 7.2 4.2 1.7 2.5 4.1 6.9 5.2 9.9 1.1 2.9 3.1 6.7 4.4 8.3 2.2 2.6 2.4 2.7 2.5 0.8 0 -1.1 0.5 -2.5 1.1 -3.1 2.3 -2.3 -9.1 -22.2 -17.6 -30.8 -2.5 -2.5 -3.7 -4.8 -4.6 -9.2 -1.5 -7.1 -3.1 -8.2 -11.1 -7.5 -7.5 0.6 -9.1 -0.5 -11.1 -7.8 -1.2 -4.3 -2.9 -7.3 -5.7 -10.3 l-3.9 -4.2 -0.1 4.3 c0 2.8 -0.5 4.5 -1.5 4.8 -0.8 0.4 -1.5 1.2 -1.5 2 0 1 -1.2 1.4 -4 1.4 -2.2 0 -4 0.3 -4 0.6 0 0.3 1.4 2.5 3 5 4.5 6.4 6 11.5 7.5 25.2 1.6 13.7 4.6 25.9 7.7 31.2 4.5 7.7 12.4 16.8 8.9 10.2z m93.9 -51.8 c-3.2 -3.2 -8 -6.2 -16.2 -10.2 l-11.7 -5.7 -0.1 -3.9 0 -3.9 9.8 0.6 c5.3 0.4 12.8 1.4 16.6 2.2 3.8 0.8 7.2 1.3 7.4 1 0.3 -0.3 -4 -2.6 -9.6 -5.2 -8 -3.8 -10.2 -5.2 -10.2 -6.9 0 -1.7 -1.4 -2.4 -8.7 -4.5 l-8.8 -2.4 -0.3 -3.6 c-0.3 -3.2 0.1 -3.8 4.1 -6.3 10.2 -6.5 9.4 -15.2 -2 -19.1 -3.6 -1.2 -3.8 -1.6 -4.1 -5.8 -0.3 -4.1 0 -4.7 3.5 -7.4 8 -6.3 29.9 -15.3 37.3 -15.3 5.2 0 4.1 -1.7 -2.3 -3.6 -5.1 -1.6 -9.5 -1.9 -25.7 -1.9 -13.4 0 -20.6 -0.4 -23.2 -1.3 -4.7 -1.7 -8.9 -0.1 -13.8 5.2 -1.9 2.1 -6.6 5.3 -10.5 7.3 -3.8 1.9 -8.3 4.5 -9.9 5.8 l-3 2.4 2.7 1.2 c2.1 1 2.7 1.9 2.7 4.5 0 1.8 -0.4 3.6 -1 3.9 -0.5 0.3 -6.5 1.7 -13.2 3.1 -7.8 1.6 -14.7 3.7 -18.8 5.7 l-6.5 3.2 13.5 0.6 c14 0.6 22.7 2.4 34.5 7.1 5.7 2.3 6 2.6 6.3 6.1 0.3 3.1 0 3.7 -2 4.2 -2.1 0.5 -2.3 1.1 -1.9 5.2 l0.3 4.6 -7.8 -0.6 -7.9 -0.7 8.5 5.1 c8.6 5.1 26.9 17.2 34.8 22.9 3.1 2.3 4.2 2.7 4.2 1.6 0 -2.9 7.3 -1.9 18.2 2.5 8.5 3.4 16.5 6.3 18.8 6.8 0.2 0.1 -1.6 -2 -4 -4.5z m-249.7 -29.8 c2.2 -1.7 4.7 -2.6 7 -2.6 3.2 0 3.7 0.3 3.7 2.4 0 1.3 0.8 3.4 1.8 4.6 l1.9 2.3 7.9 -3.8 c4.3 -2.2 7.2 -4 6.4 -4.1 -9.7 -1.5 -9 -1.1 -9 -5.9 0 -6.8 0.5 -7.5 6.2 -7.5 3.9 0 7 -1 14.3 -4.6 8 -4 10.6 -4.8 18 -5.5 4.8 -0.4 8.9 -1 9.2 -1.3 0.9 -0.8 -11.9 -6.9 -17.4 -8.2 -5.6 -1.3 -9.8 -0.7 -14.8 2 -1.6 0.9 -5.1 1.6 -7.7 1.6 l-4.8 0 0 -3.9 c0 -3.1 0.6 -4.4 2.6 -6 3.2 -2.5 2.6 -2.6 -2.3 -0.6 -1.9 0.8 -5.8 1.5 -8.6 1.5 -8.5 0 -47 -12.6 -54.5 -17.8 -5.2 -3.6 -5.5 -3.6 -3.9 -0.6 2.6 5 9.4 10 17 12.4 3.4 1.1 3.7 1.4 3.7 5.1 0 2.1 -0.4 3.9 -1 3.9 -0.5 0 -1 0.4 -1 0.9 0 1 9.6 3.4 20.3 5.2 6.5 1.1 6.7 1.2 6.7 4.1 0 1.6 -0.5 3.9 -1.2 5.1 -0.6 1.2 -1 4.1 -0.9 6.4 0.2 5.4 -1.5 8.7 -8.6 16.3 l-5.6 6.1 5.6 -2.5 c3.1 -1.4 7.2 -3.6 9 -5z m94.7 -37.3 c0 -1 0.9 -3.3 2 -5 1.6 -2.6 2.6 -3.3 5.2 -3.3 2.6 0 3.7 -0.6 5 -3 1 -1.7 2.5 -3 3.6 -3 1.1 0 3.5 -0.7 5.3 -1.5 l3.4 -1.4 -3.2 -0.1 c-3.2 0 -3.3 -0.1 -3.3 -4.6 0 -4.5 0.2 -4.8 10.5 -14.9 5.8 -5.6 10.5 -10.8 10.5 -11.4 0 -0.8 1.5 -1.1 4.3 -0.9 l4.2 0.3 0.3 6.9 c0.4 10.2 -1.8 14.3 -10.4 18.6 -3.6 1.8 -3.7 1.9 -1.3 2 3 0 3.9 1.6 3.9 6.6 0 3.2 0.2 3.4 2.8 2.8 1.5 -0.3 4.4 -1.7 6.5 -3.1 l3.8 -2.4 -2.5 -2 c-2 -1.5 -2.6 -3 -2.6 -5.7 0 -3.1 0.6 -4.1 3.5 -5.9 1.9 -1.3 4.1 -2.3 4.8 -2.3 1.9 0 3.2 -15.5 1.7 -19.4 -0.5 -1.5 -1 -5.2 -1 -8.2 0 -4.7 0.7 -6.9 4.9 -14.7 6.1 -11.3 8.1 -18.1 8.1 -26.6 -0.1 -6.5 -0.1 -6.6 -1.5 -3.4 -2.5 5.7 -9.7 15.6 -16.1 22.1 -6 6 -6.4 6.2 -11.3 6.2 -6.3 0 -8.4 1.9 -10.6 9.5 -1.1 3.8 -2.6 6.2 -4.5 7.7 -1.6 1.1 -4.3 4 -6 6.4 l-3.1 4.4 3 0 c2.8 0 3.1 0.3 3.1 3.1 0 1.7 -1.2 4.8 -2.9 7.2 -5.9 8.6 -9.1 15.6 -9.1 20 0 5 -0.7 6.2 -4.1 7 -1.4 0.4 -4.1 1.8 -6 3.2 -1.9 1.4 -4.2 2.8 -5.1 3.1 -1 0.4 -1.8 1.3 -1.8 2 0 1.8 3.1 5.2 4.8 5.3 0.6 0.1 1.2 -0.7 1.2 -1.6z m-18.8 -19.1 c-0.7 -0.2 -1.2 -1.8 -1.2 -3.6 0 -1.9 -1.4 -5.3 -3.4 -8.6 -1.9 -3 -4.9 -7.9 -6.6 -10.7 -1.8 -2.9 -3.8 -5.3 -4.6 -5.3 -0.9 0 -1.4 -1.1 -1.4 -3.1 0 -1.7 -1 -4.5 -2.2 -6.2 -2.8 -4.2 -12 -13.7 -13.2 -13.7 -0.5 0 -1.7 -0.6 -2.5 -1.4 -2.7 -2.4 -14.2 -5.3 -23.6 -6.1 -7.3 -0.6 -9.6 -1.2 -12.2 -3.2 l-3.3 -2.4 -0.2 2.8 c-0.3 5.3 0.3 8.7 3.3 18.5 1.7 5.4 4.2 11.1 5.5 12.7 1.4 1.7 2.4 4.2 2.4 5.9 0 2.9 -0.2 3.1 -4.2 3.4 l-4.3 0.3 7 2.2 c3.9 1.2 14.2 3.4 23 4.8 8.8 1.5 19 3.7 22.8 5 6.8 2.3 15.4 7.3 17.8 10.2 1 1.2 1.4 1.2 1.8 0.2 0.2 -0.7 -0.1 -1.5 -0.7 -1.7z"/>
  <path d="M127 263 c0 -1.7 1.2 -5.4 2.6 -8.2 4.3 -8.5 7.4 -17.6 7.4 -21.7 0 -2.5 0.7 -4.4 2 -5.6 1.2 -1 3 -3.4 4.1 -5.2 1.7 -2.7 2.7 -3.3 5.5 -3.3 l3.4 0 0 7.1 c0 12 -5.8 26.4 -14.3 35.6 -3.2 3.4 -4.6 4.3 -7.3 4.3 -3.1 0 -3.4 -0.3 -3.4 -3z"/>
  <path d="M254.5 143.4 c-7.2 -1 -7.5 -1.3 -7.5 -4.8 0 -3.5 0 -3.5 5.8 -4.1 3.1 -0.4 7.7 -1.2 10.2 -1.8 2.5 -0.5 9.8 -1.2 16.3 -1.4 l11.7 -0.4 0 4 0 4 -6.2 1.9 c-6.2 1.9 -24.2 3.4 -30.3 2.6z"/>
  <path d="M115.8 96.1 c-7.2 -2.3 -11.7 -5.1 -16.3 -10.2 -4.5 -5 -6.5 -9.6 -6.5 -14.9 0 -3.8 0.1 -4 3.1 -4 2.4 0 4.5 1.3 8.8 5.2 7.3 6.7 16.4 13.4 22.4 16.4 4.2 2.2 4.7 2.8 4.7 5.9 l0 3.5 -5.2 -0.1 c-2.9 0 -7.8 -0.8 -11 -1.8z"/>
 </g>
 <g fill="#c6c8dd">
  <path d="M85 299.1 c0 -0.5 2.2 -2.6 4.9 -4.6 11.5 -8.4 23.8 -24 27.7 -35.2 2 -5.8 4.4 -7.1 4.4 -2.4 0 4.1 -2 9.1 -3.6 9.1 -0.9 0 -1.4 1.1 -1.4 3 0 2 -0.5 3 -1.5 3 -0.9 0 -1.5 0.9 -1.5 2.5 0 1.5 -0.6 2.5 -1.4 2.5 -0.8 0 -1.6 1 -1.8 2.3 -0.2 1.7 -1.1 2.3 -3.5 2.5 -2.8 0.3 -3.1 0.7 -3.5 4.1 l-0.3 3.8 3.5 -1.6 c1.9 -0.9 4.1 -2.2 4.8 -2.8 0.7 -0.7 2.4 -1.3 3.8 -1.3 1.5 0 2.4 -0.6 2.4 -1.5 0 -0.8 0.7 -1.5 1.5 -1.5 0.8 0 1.5 -0.4 1.5 -1 0 -0.5 0.7 -1 1.5 -1 0.8 0 1.5 -0.4 1.5 -1 0 -0.5 1.5 -1 3.4 -1 3 0 3.5 -0.3 3.8 -2.7 0.2 -2.3 0.8 -2.9 3.6 -3.1 2.5 -0.3 3.2 -0.8 3.2 -2.5 0 -2.3 7.6 -10.7 9.7 -10.7 0.7 0 1.3 -0.4 1.3 -1 0 -1.8 7.8 -1.1 11.5 1.1 3 1.8 4 2 6.1 1 3 -1.4 12.4 -1.5 12.4 -0.1 0 1.5 6.1 4.3 9.2 4.2 1.5 0 5 -1.3 7.8 -2.8 3.8 -2.1 5 -3.3 5 -5.1 0 -2.1 0.4 -2.3 5.5 -2.3 5.5 0 5.5 0 4.9 -2.7 -0.4 -1.6 -1 -3.5 -1.5 -4.3 -0.4 -0.9 -1.2 -5.1 -1.8 -9.3 -1.5 -10.5 -2.2 -11.7 -7.1 -11.7 -2.6 0 -4.7 -0.7 -5.9 -1.9 -3.3 -3.3 -7.2 -12.6 -8 -19.2 -0.8 -6.4 -0.8 -6.4 -2.1 -3.4 -1.3 2.9 -3 22.7 -3 35.5 0.1 8.7 -2 11.8 -10.1 15.9 -7 3.5 -14.3 4.2 -15.3 1.5 -1.6 -4.2 -0.3 -9.4 2.5 -9.4 1.4 0 1.9 -0.7 1.9 -2.6 0 -1.5 1 -5.8 2.3 -9.5 1.6 -5 2.7 -6.9 4 -6.9 3 0 1.4 6.7 -4.4 18.3 -3.7 7.3 -3.8 7.7 -1.8 7.7 1.2 0 4.8 -1.4 8.1 -3.2 7.5 -4 9.3 -7 8.4 -14.9 -0.3 -3.4 -0.2 -6.1 0.4 -6.4 0.6 -0.3 1 -5.5 1 -11.6 0 -8.3 0.5 -12.3 2 -16.5 1.8 -5.3 6.7 -13 7.6 -12.1 0.3 0.2 0.9 4.7 1.5 9.8 1.5 13.9 7.3 25.4 12.5 24.9 5.8 -0.6 7.8 1.9 8.9 11.1 0.4 3 1.5 8.2 2.6 11.7 2.4 8.2 3.9 20.7 3 25.7 l-0.7 4 -2.6 -5.8 c-2.5 -5.2 -5 -7.8 -6.4 -6.4 -0.3 0.3 -0.9 2.9 -1.3 5.9 -0.4 2.9 -1.6 6.6 -2.6 8.2 l-1.9 2.8 -2.5 -3.1 c-2.4 -2.9 -3.1 -3.1 -8.7 -3.1 -8.4 0 -20 -3.2 -29.2 -8 -4.3 -2.2 -8.1 -4 -8.6 -4 -0.4 0 -4.2 3.2 -8.4 7.1 -14 12.9 -33.1 25 -46.2 29.2 -10 3.3 -13 3.9 -13 2.8z"/>
  <path d="M241.4 267 c-5 -3.8 -13 -13.5 -16.1 -19.3 -1.5 -2.9 -6.3 -20.7 -6.3 -23.3 0 -0.8 0.8 -1.4 1.8 -1.4 1.5 0 2.2 1.6 3.6 7.8 1.9 8 5.4 17.5 6.8 18 0.4 0.2 0.8 1 0.8 1.8 0 0.8 0.5 1.4 1 1.4 0.6 0 1 1.1 1 2.5 0 1.8 0.5 2.5 2 2.5 1.7 0 1.8 -0.3 1 -2.6 -1.5 -3.8 -1.2 -9 0.5 -10.8 2.1 -2.1 1.9 -2.6 -1.4 -2.6 -2.6 0 -2.9 -0.3 -3.5 -4.6 -0.9 -7.2 -0.8 -9.4 0.9 -9.4 0.9 0 1.6 1.4 2 3.8 1.4 8.1 2.4 7.9 4.9 -0.7 3.3 -11.1 1.3 -19.8 -3.3 -15.2 -1.2 1.2 -2.1 2.8 -2.1 3.6 0 0.8 -0.7 1.5 -1.5 1.5 -1.9 0 -2.1 -5.9 -0.2 -8.4 1 -1.3 2.4 -1.7 6.2 -1.4 4.4 0.3 4.9 0.6 5.7 3.3 0.9 3 0.3 14.9 -0.8 17.9 -0.3 0.9 -0.2 1.6 0.4 1.6 0.5 0 1.3 -1.1 1.6 -2.5 0.4 -1.6 1.3 -2.5 2.6 -2.5 1.6 0 2 -0.7 2 -3.1 0 -3.7 1.4 -5.2 6 -6.5 4.3 -1.2 4.9 -3.6 1.6 -6.5 -1.6 -1.3 -3.3 -4.6 -4.2 -7.8 -3.2 -10.9 -4.1 -11.6 -13.9 -10.5 -5.2 0.6 -5.5 0.5 -5.5 -1.5 0 -1.2 -0.6 -2.1 -1.5 -2.1 -0.8 0 -1.5 -0.8 -1.5 -1.8 0 -1 -1.1 -4.1 -2.5 -6.8 -1.4 -2.7 -2.5 -6.2 -2.5 -7.9 l0.1 -3 2.9 3.3 c1.8 1.9 3.7 5.7 4.7 9.3 1.8 6.5 4.4 8.9 8 7.4 2.3 -1 7.1 -0.7 10.4 0.7 2.1 0.9 2.8 2.2 3.8 7.1 0.9 4.4 2.1 6.7 4.6 9.2 5.4 5.5 11.9 15.3 16.9 25.5 2.5 5.3 4.6 9.9 4.6 10.3 0 0.4 -0.9 0.7 -1.9 0.7 -2.9 0 -3.5 1.7 -2.1 6.6 0.7 2.5 1.1 4.7 0.8 4.9 -0.8 0.8 -6.9 -4.3 -9.8 -8.2 -1.6 -2.1 -3.8 -6.3 -5 -9.2 -2.3 -6 -7.6 -14.1 -9.1 -14.1 -0.5 0 -1.8 1.4 -2.7 3.2 -0.9 1.7 -4.3 7 -7.4 11.8 -3.2 4.7 -5.8 9.5 -5.8 10.6 0 1.1 2.2 6.4 4.9 11.7 5.5 11.1 4.9 12.2 -3.5 5.7z"/>
  <path d="M126 264 c0 -2.7 5.2 -14.7 6.9 -16 0.4 -0.3 1.3 -3.1 2.1 -6.2 1 -4.5 1.7 -5.8 3.2 -5.8 1.1 0 1.8 0.7 1.8 2 0 2.4 -3.9 12.8 -7.5 20 l-2.7 5.5 3.7 -3.5 c2 -1.9 4.8 -5.4 6.3 -7.7 1.5 -2.4 3 -4.3 3.5 -4.3 0.4 0 0.7 1.6 0.7 3.5 0 1.9 -0.4 3.5 -1 3.5 -0.5 0 -1 0.7 -1 1.5 0 0.8 -0.9 1.5 -2 1.5 -1.4 0 -2 0.7 -2 2.3 0 3.5 -4 6.7 -8.3 6.7 -3.5 0 -3.7 -0.2 -3.7 -3z"/>
  <path d="M89 263.7 c0 -0.3 1.1 -2.5 2.5 -4.9 3.6 -6.5 6.4 -15.1 7.1 -22.3 0.6 -5.8 0.5 -6.2 -1.5 -6.8 -2.8 -0.7 -2.9 -4.7 -0.1 -4.7 1.1 0 2.3 0.7 2.6 1.5 0.4 0.8 1.2 1.5 2 1.5 1.9 0 1.8 6.4 -0.1 15.5 -1.9 8.8 -1.9 8.5 0.5 8.5 1.1 0 2 0.7 2 1.5 0 1 1 1.5 3 1.5 3.3 0 3.9 1.4 1.3 2.9 -1.4 0.7 -2.3 0.5 -3.9 -1 l-2.2 -2 -4.7 3.5 c-4.8 3.7 -8.5 6 -8.5 5.3z"/>
  <path d="M146.4 237.5 c3.1 -9.6 5.6 -12.3 5.6 -6.2 0 1.8 -0.9 6.1 -2.1 9.5 -1.7 5.1 -2.5 6.2 -4.3 6.2 l-2.3 0 3.1 -9.5z"/>
  <path d="M139 229.9 c0 -4.3 1.8 -6.2 5.6 -5.7 l2.6 0.3 -4 4.5 -4.1 4.5 -0.1 -3.6z"/>
  <path d="M95.4 214.8 c0.9 -8.5 5.4 -17.6 11.3 -22.7 2.5 -2.3 5 -4.1 5.5 -4.1 0.5 0 0.6 1.9 0.2 4.5 -0.4 3.1 -0.3 4.5 0.5 4.5 1.2 0 13.6 -8.3 23.3 -15.7 12.4 -9.4 29.4 -16.7 34 -14.6 2 0.8 1.8 1.1 -2.1 4.2 -4.7 3.7 -5.1 4.8 -1.8 5.3 1.9 0.3 1.7 0.6 -1.9 2.5 -7.9 4.2 -16 16.2 -17.9 26.7 l-0.8 3.8 3.1 -1.6 c4.2 -2.2 6.2 -2 6.2 0.4 0 1.3 -0.7 2 -2 2 -1.1 0 -2 0.5 -2 1 0 0.6 -2.1 1 -4.6 1 l-4.7 0 0.6 -5.2 c0.4 -2.9 1.1 -5.4 1.7 -5.6 0.5 -0.2 1 -1.7 1 -3.3 0 -1.6 0.5 -2.9 1 -2.9 0.6 0 1 -1.1 1 -2.5 0 -1.6 0.6 -2.5 1.5 -2.5 0.9 0 1.5 -0.9 1.5 -2.5 0 -1.4 0.5 -2.5 1 -2.5 0.6 0 1 -0.6 1 -1.2 0 -1.9 9.4 -10.8 11.3 -10.8 1 0 1.7 -0.5 1.7 -1.1 0 -0.7 -0.7 -0.8 -1.7 -0.4 -1 0.4 -3.9 1.2 -6.5 1.8 -2.7 0.7 -4.8 1.7 -4.8 2.4 0 0.7 -0.7 1.3 -1.5 1.3 -0.8 0 -2.4 0.9 -3.5 2 -1.1 1.1 -2.9 2 -4 2 -1.1 0 -2 0.7 -2 1.5 0 0.8 -0.9 1.5 -2 1.5 -1.1 0 -2 0.7 -2 1.5 0 0.9 -0.7 1.8 -1.6 2.2 -0.9 0.3 -2.8 1.7 -4.2 3 -1.4 1.3 -3.6 2.6 -4.8 2.9 -1.2 0.3 -2.5 1.2 -2.8 2 -0.3 0.8 -1.2 1.4 -2.1 1.4 -0.8 0 -1.5 0.5 -1.5 1 0 0.6 -0.7 1 -1.5 1 -0.8 0 -1.5 0.5 -1.5 1 0 0.6 -1.8 1 -4 1 -3.4 0 -4 -0.3 -4 -2.2 0 -2 -0.1 -2 -1.9 -0.4 -3.4 3 -7.2 11.5 -7.8 17.1 -0.5 4.6 -0.9 5.5 -2.6 5.5 -1.8 0 -1.9 -0.5 -1.3 -6.2z"/>
  <path d="M218.6 217.8 c-0.3 -1.3 -0.6 -3.7 -0.6 -5.5 0 -12.5 -13.3 -32 -25.6 -37.4 -8.2 -3.7 -3.9 -5.3 6.2 -2.3 3 0.8 7.7 3.1 10.5 5 5.4 3.6 6.9 4.1 6.9 2.3 0 -0.7 0.8 -1.8 1.8 -2.5 1.6 -1.3 1.5 -1.5 -0.8 -3.4 -2.9 -2.3 -12.2 -6 -15 -6 -1.1 0 -2 -0.4 -2 -0.9 0 -1.4 8.4 -2.3 11.2 -1.2 1.4 0.5 3.5 0.7 4.5 0.5 2.4 -0.6 9.3 2 9.3 3.5 0 0.6 -1.1 1.1 -2.5 1.1 -1.4 0 -2.5 0.5 -2.5 1 0 0.6 0.7 1 1.5 1 1 0 1.5 1.1 1.5 3.5 0 2.4 -0.5 3.5 -1.5 3.5 -0.8 0 -1.5 0.5 -1.5 1 0 0.6 -2.8 1 -6.5 1 -5.1 0 -6.5 0.3 -6.5 1.5 0 0.9 0.9 1.5 2.5 1.5 1.6 0 2.5 0.6 2.5 1.5 0 0.8 0.5 1.5 1 1.5 0.6 0 1 0.7 1 1.5 0 0.8 0.5 1.5 1 1.5 0.6 0 1 1.4 1 3 0 1.9 0.5 3 1.4 3 1.7 0 3.3 6.2 4.2 15.9 0.6 6 0.4 7.1 -0.8 7.1 -0.9 0 -1.8 -1 -2.2 -2.2z"/>
  <path d="M164.4 215 c-0.6 -3.4 -1 -4 -3 -4 -1.9 0 -2.4 -0.5 -2.4 -2.5 0 -1.4 0.5 -2.5 1 -2.5 2.2 0 8 6.6 8.6 9.8 0.6 2.8 0.4 3.2 -1.5 3.2 -1.7 0 -2.2 -0.8 -2.7 -4z"/>
  <path d="M305.4 211.7 c-25.1 -20.6 -61.1 -42.8 -75.6 -46.7 -4.6 -1.2 -8.5 -2.4 -8.8 -2.7 -0.7 -0.7 9.5 0.5 26.9 3.3 8.5 1.3 15.7 2.2 16 1.8 0.3 -0.3 -0.7 -1.6 -2.3 -2.9 -3.5 -2.8 -2.8 -4.1 2.7 -5.6 3.9 -1 4 -1.2 2.2 -2.5 -1.8 -1.3 -1.7 -1.4 0.8 -1.4 2.4 0 2.7 0.4 2.7 3.5 0 2.3 -0.5 3.5 -1.4 3.5 -1 0 -1.2 1.1 -0.9 4.5 l0.5 4.4 -6.6 0.3 -6.7 0.3 9.1 5.5 c5 3 9.9 6 10.8 6.5 4.4 2.6 9.7 5.9 10.2 6.5 0.3 0.3 3.1 2.5 6.3 4.9 l5.9 4.3 1.5 -2.2 c0.9 -1.2 3.3 -3 5.4 -3.9 l3.9 -1.8 -2.5 -1.1 c-2 -1 -2.5 -1.9 -2.5 -5.1 0 -2.6 0.5 -4.1 1.6 -4.5 2.7 -1 9.4 -0.6 20.2 1.2 5.6 1 10.2 1.6 10.2 1.5 0 -0.5 -13.6 -7 -16 -7.6 -1.5 -0.4 -2 -1.3 -2 -4.1 0 -3.4 0.1 -3.6 3.5 -3.6 1.9 0 3.5 0.5 3.5 1 0 0.6 -0.7 1 -1.5 1 -3.1 0 -1.3 1.7 3.9 3.9 12.6 5.2 45.6 26.4 45.6 29.3 0 0.5 -4.8 -1.6 -10.7 -4.6 -11.9 -6.1 -21.9 -9.7 -33.3 -12 -10.1 -2 -21 -3.1 -21 -2 0 0.5 5 3.3 11.1 6.2 11.4 5.4 20.5 12.6 23.5 18.4 1.9 3.6 1.8 3.8 -1.4 3.8 -4 0 -11.8 -2.4 -25.4 -7.7 -11.3 -4.4 -14.4 -4.9 -12.3 -1.8 0.6 0.8 2.3 3.2 3.9 5.5 3.4 4.8 3 6 -1 2.7z"/>
  <path d="M145.8 154.7 c-4.1 -1.6 -3.6 -3.7 0.9 -3.7 2 0 3.3 0.3 3 0.7 -0.4 0.3 0 1.5 1 2.5 1.5 1.7 1.5 1.8 -0.3 1.7 -1 -0.1 -3.1 -0.6 -4.6 -1.2z"/>
  <path d="M80.3 149.6 c0.4 -1.1 -1.1 -1.7 -6.6 -2.6 -11.4 -1.8 -21.5 -4.8 -30.2 -8.9 -7.6 -3.6 -15.9 -9.3 -11 -7.6 10.5 3.8 16.7 5 22.3 4.6 2.5 -0.2 1.1 -2 -2.5 -3.2 -5.6 -1.7 -11.9 -5.7 -14.8 -9.1 -3.1 -3.6 -4.2 -7.7 -2.5 -8.8 0.9 -0.5 0.9 -0.9 0.1 -1.4 -0.6 -0.4 -1.1 -2.1 -1.1 -3.8 0 -3.4 -0.9 -3.8 8.6 3.4 5.8 4.4 20 10.2 39.3 16 8.9 2.6 14.1 4.7 14.1 5.5 0 0.7 -1.1 1.3 -2.6 1.3 -3.5 0 -17.4 -4.1 -17.4 -5.2 0 -0.4 -1.3 -0.8 -2.9 -0.8 -3.4 0 -17.4 -4.8 -17.9 -6.1 -0.2 -0.5 -1.2 -0.9 -2.2 -0.9 -2.9 0 -5 -1.1 -5 -2.6 0 -0.9 -1.1 -1.4 -3 -1.4 -1.6 0 -3 -0.4 -3 -1 0 -0.5 -0.6 -1 -1.4 -1 -0.8 0 -1.6 -0.3 -1.9 -0.7 -0.2 -0.5 -0.2 -0.1 0.1 0.7 0.3 0.8 0.7 2.7 1 4.3 0.3 2 1 2.7 2.8 2.7 1.5 0 2.4 0.6 2.4 1.5 0 0.8 0.8 1.5 1.7 1.5 3 0 8.3 2.4 8.3 3.7 0 0.7 1.1 1.3 2.5 1.3 2.2 0 2.5 0.4 2.5 3.4 0 1.9 -0.6 3.6 -1.2 3.9 -0.7 0.2 -1 0.7 -0.7 1.1 0.9 0.9 18.8 4.6 22.6 4.6 3.1 0 3.3 0.2 3.3 3.5 0 2.9 -0.4 3.5 -2.1 3.5 -1.4 0 -1.9 -0.5 -1.6 -1.4z"/>
  <path d="M178.7 143.4 c-1.6 -0.9 -3.6 -1.3 -4.4 -1 -2.3 0.9 -9 -6.5 -9.9 -10.8 -0.3 -2.1 -1.2 -3.6 -2 -3.6 -0.8 0 -1.4 -0.9 -1.4 -2 0 -1.1 -1.5 -4.9 -3.4 -8.3 -1.8 -3.4 -3.6 -8 -3.9 -10.2 -0.4 -2.2 -1.1 -4.1 -1.7 -4.3 -0.5 -0.2 -1 -1.2 -1 -2.3 0 -1 -0.7 -1.9 -1.5 -1.9 -0.8 0 -1.5 -0.4 -1.5 -0.9 0 -0.5 -0.9 -1.1 -2 -1.4 -2 -0.5 -8 -11.9 -8 -15.2 0 -0.9 -2 -3.8 -4.5 -6.4 -2.5 -2.6 -4.5 -5.3 -4.5 -6 0 -0.6 -0.7 -1.1 -1.5 -1.1 -0.8 0 -1.5 -0.4 -1.5 -1 0 -0.5 -0.9 -1 -2 -1 -2.2 0 -3.4 -1.9 -2.8 -4.4 0.3 -1.4 0.6 -1.4 2.8 -0.1 1.4 0.8 3.4 1.8 4.5 2.4 4.1 1.8 13.2 12.9 17.5 21.2 2.3 4.6 5.8 10.4 7.6 13 3.1 4.3 13.4 24 13.4 25.7 0 0.4 0.7 1.8 1.6 3.1 1.6 2.2 1.6 2.2 3.8 0.3 2.6 -2.4 8 -5.2 10 -5.2 0.8 0 1.7 -0.6 1.9 -1.2 0.3 -0.7 0.6 0.1 0.6 1.7 0.1 2.8 -0.4 3.2 -4.9 5 -2.7 1.1 -5 2.5 -5 3.2 0 0.7 -0.7 1.3 -1.6 1.3 -1.3 0 -1.5 0.6 -0.9 2.7 1 4.2 4.5 5.9 4.5 2.3 0 -1.2 0.7 -3.4 1.5 -5 1.3 -2.5 2.2 -3 5 -3 3.4 0 3.5 0.1 3.4 3.8 0 3.3 -0.1 3.4 -1 1.4 -1.1 -2.7 -2.3 -2.2 -4.5 1.9 -1.4 2.8 -1.4 3.3 0 5.4 2.6 4 2 4.4 -2.7 1.9z m-11.7 -15.4 c-1.6 -4 -2.3 -3.3 -0.9 0.9 0.6 1.8 1.4 3 1.7 2.7 0.2 -0.3 -0.1 -1.9 -0.8 -3.6z m-3.4 -7.7 c-0.8 -1.5 -1.5 -2.5 -1.6 -2.1 0 1.2 2.3 5.8 2.7 5.4 0.3 -0.2 -0.2 -1.7 -1.1 -3.3z"/>
  <path d="M205 131.1 c0 -0.4 2 -2.2 4.5 -4 4.6 -3.3 5.2 -4.5 3.5 -7.1 -0.8 -1.3 -1.2 -1.3 -3.2 -0.1 -5 3.1 -11.7 6.1 -13.7 6.1 -3.5 0 -2.6 -3.5 1.2 -4.8 2.5 -0.8 2.7 -1 1 -1.1 -1.9 -0.1 -2.3 -0.7 -2.3 -3.6 0 -2.3 0.5 -3.5 1.4 -3.5 0.9 0 1.2 0.7 0.9 1.9 -0.5 1.9 -0.2 1.9 3.3 0.9 2.2 -0.5 4.2 -1.5 4.6 -2.2 0.5 -0.7 0.8 -0.5 0.8 0.5 0 1.2 1.3 1.8 4.9 2.3 5.1 0.7 6.1 1.7 6.1 6.2 0 1.3 0.3 2.4 0.6 2.4 1.9 0 8.4 -2.4 8.4 -3.2 0 -0.4 0.7 -0.8 1.5 -0.8 2 0 0.8 -2.7 -1.6 -3.3 -1.4 -0.4 -1.9 -1.4 -1.9 -4.1 0 -3.3 0.3 -3.6 2.8 -3.6 2 0 2.3 0.3 1.3 0.9 -1.3 0.8 -1.3 1.2 -0.1 2.6 0.7 0.9 2.6 2.3 4.2 3.1 4.1 2.1 3.5 3.9 -2.4 7.8 -5.9 3.8 -25.8 9 -25.8 6.7z"/>
  <path d="M147.3 117.7 c-4.2 -2.8 -4.1 -3.7 0.2 -3.7 3.2 0 3.5 0.2 3.5 3 0 1.7 -0.1 3 -0.2 2.9 -0.2 0 -1.8 -1 -3.5 -2.2z"/>
  <path d="M136 112.5 c-3.6 -1.3 -13.7 -3.5 -22.5 -5 -19.9 -3.2 -25.3 -4.8 -33.5 -9.3 -7.4 -4 -16.7 -12.9 -15.2 -14.4 1 -1 6.2 1.7 6.2 3.2 0 0.4 0.9 1 2 1.3 1.1 0.3 2 1.2 2 2.1 0 0.9 0.8 1.6 2 1.6 1.1 0 2 0.7 2 1.5 0 0.8 0.9 1.5 2 1.5 1.2 0 3.7 0.8 5.8 1.9 5.2 2.6 12.3 4.1 22.1 4.6 5.3 0.3 8.7 0.9 9.5 1.8 0.6 0.7 4.7 1.9 9.1 2.6 10.7 1.7 15.5 3.8 15.5 6.8 0 1.3 -0.1 2.3 -0.2 2.2 -0.2 -0.1 -3.2 -1.1 -6.8 -2.4z"/>
  <path d="M179.2 113.8 c0.3 -0.7 1.9 -1.8 3.6 -2.5 3.1 -1.2 3.2 -1.2 3.2 1 0 2 -0.5 2.4 -3.6 2.5 -2.3 0.1 -3.4 -0.3 -3.2 -1z"/>
  <path d="M234 105 c0 -1.1 0.5 -2 1 -2 0.6 0 1 -1.3 1 -3 0 -3.4 1.7 -4.1 2.2 -0.9 0.3 2 0.5 2 6.3 -1.1 3.3 -1.7 7.2 -4.3 8.6 -5.6 2.7 -2.6 4.5 -2 3.3 1 -1.1 2.9 -17.4 13.6 -20.7 13.6 -1 0 -1.7 -0.8 -1.7 -2z"/>
  <path d="M100.2 87.8 c-0.7 -0.7 -1.2 -2 -1.2 -3 0 -1 -0.7 -1.8 -1.5 -1.8 -1 0 -1.5 -1.1 -1.5 -3.5 0 -1.9 0.5 -3.5 1 -3.5 0.6 0 1 0.4 1 0.9 0 0.5 2.3 3.5 5.1 6.5 l5.1 5.6 -3.4 0 c-1.9 0 -3.9 -0.5 -4.6 -1.2z"/>
  <path d="M99 58 c0 -2.1 1 -2.4 4.8 -1.4 3.6 1 2.7 3.4 -1.3 3.4 -2.8 0 -3.5 -0.4 -3.5 -2z"/>
  <path d="M88 56 c0 -1.5 -0.7 -2 -2.5 -2 -2 0 -2.5 -0.5 -2.5 -2.6 0 -1.8 0.4 -2.5 1.4 -2.1 2.1 0.8 10.5 7.1 10.5 8 0.1 0.4 -1.5 0.7 -3.4 0.7 -2.8 0 -3.5 -0.4 -3.5 -2z"/>
 </g>
 <g fill="#bebcd4">
  <path d="M243.7 268.3 c-1 -0.9 -0.9 -6.3 0.1 -6.3 0.8 0 4.2 5.2 4.2 6.4 0 0.8 -3.5 0.8 -4.3 -0.1z"/>
  <path d="M180.3 265.1 c-2.4 -1.1 -4.3 -2.5 -4.3 -3.1 0 -0.5 -0.7 -1 -1.5 -1 -0.8 0 -1.5 -0.4 -1.5 -1 0 -0.5 1.6 -1 3.6 -1 2.7 0 3.7 0.5 4.1 2 0.4 1.5 1.4 2 3.8 2 6.5 0 12.5 -1.3 12.5 -2.6 0 -0.8 0.7 -1.4 1.5 -1.4 0.8 0 1.5 -0.4 1.5 -1 0 -0.5 0.7 -1 1.5 -1 0.9 0 1.5 -0.9 1.5 -2.5 0 -2.2 0.4 -2.5 4 -2.5 3.3 0 4 0.3 4 2 0 1.6 -0.7 2 -3.7 2 -2.8 0 -3.4 0.3 -2.3 1 0.8 0.5 2.6 1 4 1.1 2.2 0.1 2 0.2 -0.9 1.1 -1.8 0.5 -5.7 2.3 -8.6 3.9 -7 3.9 -13.6 4.6 -19.2 2z"/>
  <path d="M156.8 260.8 c-4.7 -2.7 -4.8 -3.8 -0.3 -3.8 1.9 0 3.5 0.5 3.5 1 0 0.6 2.7 1 6 1 6.1 0 7.6 1.1 4.1 3 -3.2 1.7 -9.3 1.1 -13.3 -1.2z"/>
  <path d="M231.8 257 l-2.8 -3.5 2.6 -0.3 c3.3 -0.4 3.6 -0.1 3.2 3.9 l-0.3 3.4 -2.7 -3.5z"/>
  <path d="M238 256.5 c0 -1.4 -0.4 -2.5 -1 -2.5 -0.5 0 -1 -2.2 -1 -5 0 -4.7 0.2 -5 2.5 -5 1.4 0 2.5 -0.4 2.5 -1 0 -0.5 -1.6 -1 -3.5 -1 -3.1 0 -3.5 -0.3 -3.5 -2.5 0 -1.4 -0.4 -2.5 -1 -2.5 -0.5 0 -1 -1.8 -1 -4 0 -2.7 0.4 -4 1.4 -4 1.4 0 2.6 2.9 2.6 6.8 0 3.8 1.8 2.4 3.7 -2.8 2.3 -6.5 4.8 -6.8 4.1 -0.5 -0.5 3.9 -0.3 4.5 1.4 4.5 1.6 0 1.3 0.9 -2.2 5.8 l-4.1 5.8 2 5.2 2.1 5.2 -2.5 0 c-2 0 -2.5 -0.5 -2.5 -2.5z"/>
  <path d="M210.9 249.5 c-0.7 -3.6 -1.6 -6.5 -2.1 -6.5 -0.4 0 -0.8 -1.7 -0.8 -3.7 -0.1 -5.2 -1.6 -11.4 -3.1 -12.3 -0.6 -0.5 -2.9 -1.1 -5 -1.4 -3.3 -0.5 -3.9 -1 -3.9 -3.1 0 -1.8 -0.5 -2.5 -2 -2.5 -1.6 0 -2 -0.7 -2 -3.5 0 -4.6 1.1 -4.4 3.9 0.5 2.1 3.8 5.8 5.9 8 4.6 1.4 -0.9 4 0.4 5.1 2.4 0.6 1 1.4 5.1 2 9.1 0.6 4 1.7 9.1 2.4 11.4 0.8 2.2 1.7 5.7 2.1 7.8 0.6 3.3 0.5 3.7 -1.3 3.7 -1.6 0 -2.2 -1.1 -3.3 -6.5z"/>
  <path d="M95.3 251.8 c1.9 -4.6 3.7 -4.8 3.7 -0.4 0 3.2 -0.3 3.6 -2.5 3.6 -2.4 0 -2.5 -0.1 -1.2 -3.2z"/>
  <path d="M170 249.2 c0 -0.4 1.4 -1.6 3 -2.5 4.1 -2.5 6.2 -6.9 5.4 -11.2 -0.5 -3.1 -0.4 -3.5 1.5 -3.5 1.9 0 2.1 0.6 2.1 6 0 5.7 -0.1 6 -2.5 6 -2.1 0 -2.5 0.5 -2.5 3 0 2.8 -0.3 3 -3.5 3 -1.9 0 -3.5 -0.4 -3.5 -0.8z"/>
  <path d="M224.4 244.5 c-1.9 -4.6 -1.8 -6.5 0.5 -6.5 2 0 3.1 2.5 3.1 7.3 0 3.8 -1.8 3.4 -3.6 -0.8z"/>
  <path d="M248 229.5 c0 -2.8 0.4 -3.5 2 -3.5 1.6 0 2 -0.7 2 -3 0 -1.6 0.9 -5.3 2 -8.2 2.1 -5.7 2.5 -8.8 1.1 -8.8 -0.5 0 -1.4 -2 -2 -4.4 -0.6 -2.4 -1.7 -4.9 -2.6 -5.6 -1.6 -1.3 -2.1 -6 -0.6 -6 1.7 0 6.1 4.2 6.1 5.9 0 3.2 3.2 11.1 4.9 12.4 1 0.6 2.5 2.4 3.5 3.9 1.3 2 1.4 2.7 0.4 3.1 -1 0.4 -0.8 1 0.6 2.1 1.8 1.5 1.8 1.6 -0.8 2.6 -1.5 0.5 -3.1 1 -3.6 1 -0.4 0 -1.1 0.8 -1.4 1.7 -0.5 1.2 -1 1.3 -1.8 0.5 -1.4 -1.4 -2.6 -0.2 -5.8 5.6 -2.9 5.1 -4 5.3 -4 0.7z"/>
  <path d="M219.6 226.8 c-1 -3.8 -0.7 -4.8 1.4 -4.8 1.6 0 2 0.7 2 3.5 0 4 -2.4 4.9 -3.4 1.3z"/>
  <path d="M242.4 223.2 c0.3 -2.1 0.2 -5.3 -0.3 -7 -0.9 -3 -0.8 -3.2 1.5 -3.2 2.3 0 2.4 0.3 2.4 7 0 6.5 -0.2 7 -2.1 7 -1.9 0 -2.1 -0.4 -1.5 -3.8z"/>
  <path d="M95 221.3 c0 -3.4 1.2 -6.3 2.6 -6.3 1 0 1.4 1.3 1.4 4 0 3.3 -0.3 4 -2 4 -1.2 0 -2 -0.7 -2 -1.7z"/>
  <path d="M232 215.5 c0 -3.3 0.2 -3.5 3.5 -3.5 l3.5 0 -2 2 c-1.1 1.1 -2 2.7 -2 3.5 0 0.8 -0.7 1.5 -1.5 1.5 -1 0 -1.5 -1.1 -1.5 -3.5z"/>
  <path d="M179.9 215.5 c-0.1 -0.8 -0.1 -2.4 -0.1 -3.5 0 -4.2 0.2 -5 1.7 -5 1.1 0 1.5 1.2 1.5 5 0 3.8 -0.4 5 -1.5 5 -0.8 0 -1.5 -0.7 -1.6 -1.5z"/>
  <path d="M218.6 214.3 c-1.9 -10 -1.8 -11.3 0.2 -11.3 1.5 0 2.1 0.9 2.6 4.6 0.9 7.2 0.8 9.4 -0.8 9.4 -0.8 0 -1.7 -1.2 -2 -2.7z"/>
  <path d="M96 212.8 c0 -3 1.3 -5.8 2.6 -5.8 0.9 0 1.4 1.2 1.4 3.5 0 2.8 -0.4 3.5 -2 3.5 -1.1 0 -2 -0.6 -2 -1.2z"/>
  <path d="M187 205.3 c0 -3.6 -1 -5 -3.7 -5.4 l-2.3 -0.4 2.4 -5 c1.2 -2.7 3 -5.6 3.8 -6.3 1.3 -1.1 1.6 -0.3 2.2 6 0.4 4 0.9 8.8 1.3 10.6 0.4 2.8 0.2 3.2 -1.6 3.2 -1.6 0 -2.1 -0.6 -2.1 -2.7z"/>
  <path d="M298.5 204.8 c-2 -1.1 -15.5 -10.8 -16.5 -11.8 -0.9 -1 -8.5 -5.6 -10.2 -6.3 -1 -0.3 -1.8 -1.3 -1.8 -2.2 0 -2.2 6 -1.9 12.3 0.6 2.9 1.1 6.2 2.5 7.5 3 3.1 1.2 8.2 1.1 8.2 -0.1 0 -0.5 0.9 -1 2 -1 1.3 0 2 -0.7 2 -2 0 -1.1 0.5 -2 1 -2 0.6 0 1 -0.6 1 -1.4 0 -1 1.3 -1.6 3.8 -1.8 3.4 -0.3 3.7 -0.5 4 -3.8 0.6 -7.7 0.8 -8 6.2 -8 5.1 0 7.5 1.4 3.9 2.3 -2.2 0.6 -1.8 2.7 0.5 2.7 2.5 0 17.6 8 17.6 9.4 0 0.7 -0.8 2.3 -1.7 3.4 -1.8 2 -1.9 2 -10.3 0.3 -11.8 -2.5 -19.3 -3.3 -20.9 -2.2 -2.1 1.4 -0.6 2.8 5.1 4.7 4.8 1.6 5 1.8 3.2 3.1 -1 0.8 -4.1 2.5 -6.9 3.7 -5.8 2.6 -7.2 4.1 -7.7 7.8 -0.3 2.3 -0.5 2.5 -2.3 1.6z"/>
  <path d="M212.5 194.6 c-2.1 -3.5 -6 -8.7 -8.8 -11.5 l-5.1 -5.1 3.7 0 c2 0 3.7 0.5 3.7 1 0 0.6 0.5 1 1 1 0.6 0 1 -0.7 1 -1.6 0 -1.3 0.5 -1.2 2.9 0.5 3.6 2.6 3.5 2.6 6.4 -0.3 1.8 -1.8 2.1 -2.8 1.4 -3.5 -0.8 -0.8 -0.5 -1.1 1.1 -1.1 1.8 0 2.2 0.6 2.2 3.5 0 2.4 -0.5 3.5 -1.5 3.5 -0.8 0 -1.5 0.9 -1.5 2 0 1.7 -0.7 2 -4 2 -2.2 0 -4 -0.4 -4 -1 0 -0.5 -0.7 -1 -1.5 -1 -0.8 0 -1.5 0.7 -1.5 1.5 0 0.9 0.9 1.5 2.5 1.5 1.6 0 2.5 0.6 2.5 1.5 0 0.8 0.5 1.5 1 1.5 0.6 0 1 1.1 1 2.5 0 1.6 0.6 2.5 1.5 2.5 1 0 1.5 1.1 1.5 3.5 0 1.9 -0.4 3.5 -0.9 3.5 -0.4 0 -2.5 -2.9 -4.6 -6.4z"/>
  <path d="M237 193 c0 -1.4 -0.7 -2 -2.4 -2 -2.4 0 -3.6 -2.8 -3.6 -8.6 0 -3.6 2.7 -2.9 3.5 0.9 0.4 1.7 1.4 4.3 2.2 5.6 1.3 2 2 2.2 5.9 1.6 3.9 -0.6 4.4 -0.4 4.4 1.3 0 2.1 -2.5 3.2 -7.2 3.2 -2.1 0 -2.8 -0.5 -2.8 -2z"/>
  <path d="M254.5 176.1 c-7.1 -4.4 -15.5 -8.7 -18.7 -9.8 -3.2 -1 -5.8 -2.1 -5.8 -2.5 0 -1 -1.2 -1.1 12.1 1.2 6.3 1.1 12.9 2.2 14.7 2.5 3.5 0.6 4.5 3.5 1.2 3.5 -2.8 0 -2.5 1.7 0.5 2.4 1.4 0.4 2.5 1.1 2.5 1.6 0 0.6 0.7 1 1.5 1 0.8 0 1.5 0.7 1.5 1.5 0 0.9 0.9 1.5 2.5 1.5 2 0 2.5 0.5 2.5 2.5 0 1.4 -0.3 2.5 -0.7 2.5 -0.5 -0.1 -6.6 -3.6 -13.8 -7.9z"/>
  <path d="M193.8 175.4 c-4.4 -2.3 -3.5 -3.8 1.7 -3 5 0.6 8.5 2.1 8.5 3.6 0 1.5 -7.2 1.1 -10.2 -0.6z"/>
  <path d="M222 170.5 c0 -3.1 1.1 -3.2 4.7 0 l2.8 2.4 -3.7 0.1 c-3.4 0 -3.8 -0.3 -3.8 -2.5z"/>
  <path d="M209 169.5 c-1.9 -0.7 -4.5 -1.4 -5.7 -1.4 -1.3 -0.1 -2.3 -0.5 -2.3 -1.1 0 -0.6 2.7 -1 6 -1 5.7 0 6 0.1 6 2.5 0 1.4 -0.1 2.5 -0.2 2.4 -0.2 0 -1.9 -0.7 -3.8 -1.4z"/>
  <path d="M214 168 c0 -2.1 1 -2.4 4.8 -1.4 3.6 1 2.7 3.4 -1.3 3.4 -2.8 0 -3.5 -0.4 -3.5 -2z"/>
  <path d="M261 169.1 c0 -0.5 1 -1.1 2.3 -1.3 2.2 -0.3 2.2 -0.3 -0.5 -2.7 -1.6 -1.4 -2.8 -3 -2.8 -3.7 0 -1.2 5.7 -3 6.6 -2.1 0.3 0.2 0.7 2.7 1.1 5.6 l0.6 5.1 -3.7 0 c-2 0 -3.6 -0.4 -3.6 -0.9z"/>
  <path d="M147.4 154.6 c-2.2 -1.7 -1.1 -3.5 1.3 -2 1.9 1.2 2.9 3.4 1.6 3.4 -0.5 0 -1.8 -0.6 -2.9 -1.4z"/>
  <path d="M209 148.5 c0 -0.8 -0.8 -1.5 -1.7 -1.7 -1.4 -0.3 -0.7 -1.1 2.6 -3.6 5.1 -3.7 6.1 -3.9 6.1 -1.2 0 1.1 0.7 2 1.5 2 3.4 0 1.1 2.7 -3.5 4.2 -4 1.3 -5 1.4 -5 0.3z"/>
  <path d="M209.1 127.9 c6.2 -4.4 6.2 -4.5 5 -6.8 -1.5 -2.6 -3.5 -2.7 -7.1 -0.1 -3.2 2.3 -10.3 5 -13.1 5 -1.5 0 -1.9 -0.7 -1.9 -3.6 l0 -3.7 6 0.7 c5 0.6 6 0.5 6 -0.9 0 -0.8 0.7 -1.5 1.5 -1.5 0.8 0 1.5 -0.4 1.5 -1 0 -0.5 1.8 -1 4 -1 2.9 0 4 0.4 4 1.5 0 0.8 0.7 1.5 1.5 1.5 1 0 1.5 1.1 1.5 3.5 0 2.9 0.4 3.5 2.1 3.5 1.1 0 2.7 -0.7 3.5 -1.5 0.9 -0.8 2.9 -1.5 4.5 -1.5 1.9 0 2.9 -0.5 2.9 -1.5 0 -0.8 -0.9 -1.5 -2 -1.5 -1.6 0 -2 -0.7 -2 -3.7 0 -3.1 0.2 -3.4 1.3 -2.1 0.6 0.8 2.7 2.5 4.5 3.7 1.7 1.2 3.2 2.6 3.2 3.1 0 3.2 -20 11 -28.3 11 l-3 0 4.4 -3.1z"/>
  <path d="M302 125.1 c0 -2.9 0.3 -3.1 3.6 -3.1 3.9 0 3.8 0.9 -0.6 4 l-3 2.1 0 -3z"/>
  <path d="M250.5 117 c0.8 -1.2 7.1 -5.3 9.8 -6.3 1.3 -0.5 1.7 -0.1 1.7 1.8 0 2 -0.5 2.5 -2.5 2.5 -1.6 0 -2.5 0.6 -2.5 1.5 0 1.1 -1.1 1.5 -3.6 1.5 -2.2 0 -3.3 -0.4 -2.9 -1z"/>
  <path d="M235 104.5 c0 -2.2 0.4 -2.5 3.5 -2.5 4.3 0 4.5 1.4 0.5 3.5 -3.8 2 -4 1.9 -4 -1z"/>
 </g>
 <g fill="#b0b4cf">
  <path d="M85.6 298.2 c0.5 -0.4 3.2 -2.5 5.9 -4.6 2.8 -2.1 7.1 -6.2 9.8 -9 l4.7 -5.1 -0.2 4 c-0.3 3.7 -0.5 4 -3.5 4.3 -4.7 0.5 -4.4 3.2 0.3 3.2 5.6 0 3.7 2.2 -4.7 5.2 -7 2.5 -14.4 3.7 -12.3 2z"/>
  <path d="M107 289.6 c0 -2.6 1.6 -3.6 6.1 -3.6 2.2 0 2.9 -0.5 2.9 -2 0 -1.6 0.7 -2 3 -2 2.3 0 3 -0.4 3 -2 0 -1.6 0.7 -2 3 -2 2.3 0 3 -0.4 3 -2 0 -1.5 0.7 -2 2.5 -2 1.8 0 2.5 -0.5 2.5 -2 0 -1.7 0.7 -2 3.8 -2 l3.7 0.1 -3.5 3 c-6.2 5.4 -27.2 18.9 -29.4 18.9 -0.3 0 -0.6 -1.1 -0.6 -2.4z"/>
  <path d="M111 273.5 c0 -1.3 6.3 -11.5 7.1 -11.5 0.5 0 0.9 1.6 0.9 3.5 0 2.4 -0.5 3.5 -1.5 3.5 -0.9 0 -1.5 0.9 -1.5 2.5 0 2 -0.5 2.5 -2.5 2.5 -1.4 0 -2.5 -0.2 -2.5 -0.5z"/>
  <path d="M243.4 268.1 c-3.7 -2.6 -4 -3.1 -3.6 -7 0.2 -2.2 0.8 -4.1 1.2 -4.1 0.7 0 8 12.3 8 13.5 0 1.1 -2 0.3 -5.6 -2.4z"/>
  <path d="M125 265.1 c0 -4.5 1 -6.1 3.6 -6.1 2.7 0 2.8 0.3 1.4 3.1 -1.9 3.5 0.7 2 4.9 -2.8 l4 -4.8 0.1 3.8 c0 3.5 -0.2 3.7 -3 3.7 -2.7 0 -3 0.3 -3 3 0 2.8 -0.2 3 -4 3 -3.8 0 -4 -0.2 -4 -2.9z"/>
  <path d="M182.6 266 c-1.6 -0.5 -3.9 -1.9 -5.2 -3.1 -2.2 -2.1 -2.7 -2.1 -7.6 -1.1 -5.7 1.3 -8.5 0.9 -13.4 -1.5 -3 -1.5 -3.3 -1.5 -6.3 0.6 l-3.1 2.2 0 -3 c0 -1.8 0.5 -3.1 1.3 -3.1 0.6 0 2.3 -1.5 3.7 -3.2 1.4 -1.8 3.3 -4 4.3 -5 0.9 -1 1.7 -2.7 1.7 -3.8 0 -2 2.6 -8 3.9 -9 1.4 -1.1 3.1 -10.4 3.1 -16.5 0 -4.9 0.3 -6.5 1.4 -6.5 3.2 0 3.5 11.4 0.5 20.3 -1.1 3.4 -3.4 8.6 -5 11.5 -4.5 8 -3 8.9 6.8 4.3 8 -3.8 9.7 -6.5 10 -15.6 0.1 -3.8 0.6 -12.8 1.1 -20 0.8 -11.8 1.1 -13.6 4.1 -19.2 1.8 -3.5 3.6 -6.5 4 -6.8 0.5 -0.2 1.1 3.3 1.4 7.9 0.6 8.8 3 16.5 7.2 22.7 2 3.1 3.3 4 6.6 4.5 5.4 0.9 6.6 2.4 7.4 9.1 0.3 3.2 1.4 8.5 2.4 11.8 3.3 10.7 3.5 12.3 1.3 12.9 -1.1 0.4 -3.1 0.2 -4.6 -0.3 -3 -1.2 -6.6 -0.4 -4.4 1 0.7 0.5 2.3 0.9 3.6 0.9 1.2 0 2.2 0.5 2.2 1 0 0.6 -1.6 1 -3.5 1 -2.1 0 -5.1 1 -7.3 2.5 -2 1.3 -5.7 2.9 -8.2 3.4 -5.2 1.2 -5.5 1.2 -9.4 0.1z"/>
  <path d="M92 260.1 c0 -0.5 1.1 -3.3 2.4 -6.2 1.4 -3 3.2 -9.2 4.2 -13.8 l1.6 -8.3 -2.7 -2.2 c-2.7 -2.2 -2.7 -2.4 -2 -9.4 0.6 -6 1 -7.2 2.5 -7.2 1.5 0 1.8 1.1 2.2 6.6 0.2 4 0.9 6.9 1.7 7.4 1 0.6 1.3 2.8 0.9 8.9 -0.3 4.4 -0.1 8.2 0.4 8.3 0.4 0.2 1.1 3.2 1.4 6.7 0.7 6.2 0.7 6.3 -1.3 5 -1.8 -1.1 -2.5 -0.8 -5.9 1.9 -3.9 3.3 -5.4 3.9 -5.4 2.3z"/>
  <path d="M231.9 256.8 c-1.8 -2.4 -3.7 -4.9 -4.2 -5.5 -0.7 -1 -0.2 -1.3 2.2 -1.3 2.4 0 3.1 0.4 3.1 2 0 1.1 0.7 2 1.5 2 1 0 1.5 1.1 1.5 3.5 0 1.9 -0.2 3.5 -0.4 3.5 -0.2 0 -1.9 -1.9 -3.7 -4.2z"/>
  <path d="M107 255.5 c0 -1.8 0.5 -2.5 2 -2.5 1.3 0 2 -0.7 2 -2 0 -1.1 0.5 -2 1 -2 0.6 0 1 -0.7 1 -1.5 0 -1 1.1 -1.5 3.5 -1.5 3.4 0 3.5 0.1 3.4 3.8 0 3.3 -0.1 3.5 -1 1.3 -0.9 -2.3 -1 -2.3 -5.2 2.3 -4.9 5.2 -6.7 5.8 -6.7 2.1z"/>
  <path d="M133.3 248.4 c0.7 -5.8 3.1 -14.4 3.9 -14.4 0.5 0 0.8 -1.6 0.8 -3.5 0 -3.1 0.3 -3.5 2.5 -3.5 2 0 2.5 -0.5 2.5 -2.6 0 -4.4 1.7 -6.4 5.5 -6.4 3.3 0 3.5 0.2 3.5 3.3 0 1.7 -0.7 4 -1.5 5 -1.3 1.8 -1.4 1.7 -1.7 -1.2 l-0.3 -3.1 -4.2 5.2 c-2.9 3.5 -4.3 6.3 -4.3 8.3 -0.1 4.2 -4.2 15.8 -5.9 16.3 -1 0.3 -1.2 -0.5 -0.8 -3.4z"/>
  <path d="M141 251.5 c0 -0.3 1.1 -2.7 2.4 -5.3 1.3 -2.6 3.2 -7.3 4.2 -10.4 1.8 -6 4.4 -7.8 4.4 -3.2 0 3.5 -2.1 10.4 -3.2 10.4 -0.4 0 -0.8 0.9 -0.8 2 0 3.7 -2.2 7 -4.7 7 -1.2 0 -2.3 -0.2 -2.3 -0.5z"/>
  <path d="M232.6 239.3 c-0.3 -1.6 -0.9 -7.6 -1.2 -13.5 -0.7 -10.4 -0.6 -10.8 1.3 -10.8 1.9 0 2.1 0.7 2.5 10.8 0.4 12 1.3 14.9 3.4 11.1 1.3 -2.3 1.3 -2.3 1.4 1.4 0 3.6 -0.1 3.7 -3.4 3.7 -2.9 0 -3.5 -0.4 -4 -2.7z"/>
  <path d="M222.6 238.8 c-1 -3.8 -0.7 -4.8 1.4 -4.8 1.6 0 2 0.7 2 3.5 0 4 -2.4 4.9 -3.4 1.3z"/>
  <path d="M243 237.6 c0 -3.3 0.2 -3.6 3.1 -3.6 l3 0 -2.1 3 c-3.1 4.4 -4 4.5 -4 0.6z"/>
  <path d="M249 227.5 c0 -2.4 0.5 -3.5 1.5 -3.5 0.9 0 1.5 -0.9 1.5 -2.2 0 -1.3 0.7 -4.5 1.5 -7.2 0.8 -2.7 1.5 -6.6 1.5 -8.8 0 -4.5 1.5 -5 3.3 -1 0.6 1.5 1.8 3.3 2.5 4.1 1.1 1.1 1 1.7 -0.7 3.2 -1 1 -2.5 3.5 -3.1 5.6 -1.6 5 -6.1 13.3 -7.2 13.3 -0.4 0 -0.8 -1.6 -0.8 -3.5z"/>
  <path d="M142 209.4 c0 -4.5 2 -12.4 3.1 -12.4 0.5 0 0.9 -1.1 0.9 -2.5 0 -1.4 0.5 -2.5 1 -2.5 0.6 0 1 -0.9 1 -2 0 -1.5 0.7 -2 2.5 -2 1.4 0 2.5 0.2 2.5 0.4 0 0.2 -1.1 2.6 -2.4 5.3 -1.3 2.6 -3.1 7.2 -4 10.1 -1.2 4.4 -1.3 5.2 -0.1 5.2 0.8 0 1.6 -0.4 1.9 -0.9 0.3 -0.5 1.5 -1.1 2.6 -1.4 1.6 -0.4 2 0 2 1.9 0 1.7 -0.6 2.4 -2 2.4 -1.1 0 -2 0.5 -2 1 0 0.6 -1.6 1 -3.5 1 -3.3 0 -3.5 -0.2 -3.5 -3.6z"/>
  <path d="M157 208 c0 -2.3 2.6 -2.6 5.3 -0.6 2.5 2 2.1 2.6 -1.8 2.6 -2.8 0 -3.5 -0.4 -3.5 -2z"/>
  <path d="M97 207.5 c0 -3.4 11.8 -18.5 14.4 -18.5 0.7 0 1 1.6 0.8 4.5 -0.2 2.5 -0.1 4.5 0.2 4.5 0.9 0 15.1 -9.6 20.1 -13.5 6.9 -5.5 13.8 -10 19.5 -12.8 l5.5 -2.8 0.3 2.2 c0.4 2.4 -1 3.7 -5 4.6 -1.6 0.3 -2.8 0.9 -2.8 1.4 0 0.5 -1.3 0.9 -3 0.9 -2.3 0 -3 0.4 -3 2 0 1.3 -0.7 2 -2 2 -1.1 0 -2 0.7 -2 1.5 0 0.9 -0.9 1.5 -2.5 1.5 -1.8 0 -2.5 0.5 -2.5 2 0 1.3 -0.7 2 -2 2 -1.1 0 -2 0.7 -2 1.5 0 0.8 -0.7 1.5 -1.5 1.5 -0.8 0 -1.5 0.4 -1.5 0.8 0 0.5 -1.2 1.5 -2.7 2.3 -1.5 0.8 -4 2.6 -5.7 4.2 -3.4 3.1 -7.9 3.6 -10.3 1.1 -1.4 -1.4 -1.9 -1.1 -4.6 3 -2.1 3.3 -3.6 4.6 -5.3 4.6 -1.3 0 -2.4 -0.2 -2.4 -0.5z"/>
  <path d="M252 196.5 c0 -3.9 1.4 -4.6 3 -1.6 1.6 3.1 1.2 5.1 -1 5.1 -1.6 0 -2 -0.7 -2 -3.5z"/>
  <path d="M295 190.1 c0 -1.1 1.2 -2.3 2.9 -3.1 1.7 -0.7 3.2 -2.2 3.5 -3.6 0.4 -1.3 1.3 -2.4 2.1 -2.4 0.8 0 1.5 -0.4 1.5 -1 0 -0.5 1.1 -1 2.5 -1 1.4 0 2.8 -0.7 3.1 -1.5 0.4 -0.8 1.5 -1.5 2.6 -1.5 1.6 0 1.9 0.6 1.6 3.3 -0.3 2.9 -0.6 3.2 -4 3.5 -2.5 0.2 -4.1 1 -4.8 2.3 -0.8 1.4 -0.7 1.9 0.1 1.9 0.7 0 0.5 0.8 -0.6 2 -1 1.2 -2.5 1.8 -3.2 1.5 -0.8 -0.2 -1.1 0 -0.8 0.5 0.4 0.6 -0.9 1 -2.9 1 -2.9 0 -3.6 -0.4 -3.6 -1.9z"/>
  <path d="M270.1 185.7 c-1.9 -1.9 -1.2 -2.7 2.4 -2.7 2.7 0 3.5 0.4 3.5 1.8 0 2 -4.2 2.6 -5.9 0.9z"/>
  <path d="M157 180.1 c0 -2.1 0.5 -3.1 1.5 -3.1 0.9 0 1.5 -0.9 1.5 -2.5 0 -2.1 0.5 -2.5 3 -2.5 1.7 0 3 -0.4 3 -1 0 -0.5 -0.4 -1 -1 -1 -0.5 0 -1 -0.6 -1 -1.4 0 -1.5 3 -2.6 7 -2.6 2.3 0.1 2.1 0.4 -2.2 4.1 -4.5 3.9 -5.8 6.2 -4 7.2 0.4 0.2 0.1 0.2 -0.5 0.1 -0.7 -0.2 -1.8 0.5 -2.5 1.4 -0.7 0.9 -2.1 2.3 -3 3.1 -1.6 1.2 -1.8 1.1 -1.8 -1.8z"/>
  <path d="M81 148 c0 -0.5 -0.7 -1 -1.5 -1 -0.9 0 -1.5 -0.9 -1.5 -2.5 0 -2.2 0.4 -2.5 3.5 -2.5 3.2 0 3.5 -0.2 3.5 -3.1 0 -3.9 2 -5.9 5.9 -5.9 2.8 0 3.1 0.3 3.1 3.1 0 3.9 -2 5.9 -5.9 5.9 -2.9 0 -3.1 0.3 -3.1 3.5 0 2.8 -0.4 3.5 -2 3.5 -1.1 0 -2 -0.4 -2 -1z"/>
  <path d="M180 128 c0 -3.9 0.1 -4 3.5 -4 3.4 0 3.5 0.1 3.5 4 0 3.9 -0.1 4 -3.5 4 -3.4 0 -3.5 -0.1 -3.5 -4z"/>
  <path d="M192 123.6 c0 -2 0.5 -3.6 1 -3.6 0.6 0 1 -0.9 1 -2 0 -2.1 1 -2.4 4.8 -1.4 2.9 0.8 3 5 0 7.5 -1.1 1.1 -2.5 1.9 -2.9 1.9 -0.4 0 -1.4 0.3 -2.3 0.6 -1.3 0.5 -1.6 -0.1 -1.6 -3z"/>
  <path d="M212.5 119 c-0.4 -0.6 -1.3 -0.9 -2.1 -0.6 -1 0.4 -1.4 -0.3 -1.4 -2.4 0 -2.2 0.5 -3 1.8 -3 0.9 0 4.1 -0.3 7 -0.6 l5.2 -0.7 0 3.7 c0 3.3 -0.3 3.6 -2.7 3.6 -1.6 0 -3.8 0.3 -4.9 0.6 -1.2 0.3 -2.5 0.1 -2.9 -0.6z"/>
 </g>
 <g fill="#b4b1c3">
  <path d="M246.5 270 c-1.2 -0.4 -2.7 -1.5 -3.4 -2.4 -1.2 -1.4 -1 -1.6 1 -1.6 1.4 0 3 0.9 3.7 2.1 1.6 2.5 1.3 2.9 -1.3 1.9z"/>
  <path d="M92 259.8 c0.1 -0.7 0.7 -2.4 1.5 -3.8 1.4 -2.4 1.4 -2.4 1.5 -0.3 0 2.8 -1 5.3 -2.1 5.3 -0.5 0 -0.9 -0.6 -0.9 -1.2z"/>
  <path d="M237 253.4 c0 -4.4 1.8 -4.2 3.7 0.4 1.3 3.1 1.2 3.2 -1.2 3.2 -2.2 0 -2.5 -0.4 -2.5 -3.6z"/>
  <path d="M228.8 252.3 c-1 -1 -2.4 -3.5 -3.3 -5.6 -1.5 -3.7 -1.5 -3.7 1 -3.7 1.8 0 2.5 0.5 2.5 1.9 0 1.1 0.5 2.1 1.1 2.3 0.6 0.2 0.9 1.9 0.7 3.7 -0.3 3.2 -0.4 3.3 -2 1.4z"/>
  <path d="M238 244.6 c0 -3.3 0.2 -3.6 3.1 -3.6 l3 0 -2.1 3 c-3.1 4.4 -4 4.5 -4 0.6z"/>
  <path d="M245 235.3 c0 -2.6 -0.4 -3.3 -2 -3.3 -2.3 0 -2.4 -0.6 -0.9 -6.6 0.7 -2.8 1.7 -4.4 2.7 -4.4 1.2 0 1.4 0.9 0.9 5 -0.6 4.8 -0.5 5 1.8 5 3.1 0 3.1 1.2 0 4.7 l-2.4 2.8 -0.1 -3.2z"/>
  <path d="M100 231.7 c0 -0.7 -1 -1.7 -2.2 -2.2 -1.9 -0.8 -2.3 -1.9 -2.5 -5.5 -0.1 -3.5 0 -4 0.6 -2 0.6 1.6 0.8 -0.5 0.7 -6.2 -0.1 -7.2 0.2 -9 1.8 -10.7 1.1 -1.2 1.5 -2.1 1.1 -2.1 -0.5 0 0 -0.7 1.1 -1.6 1 -0.8 1.2 -1.3 0.4 -0.9 -0.8 0.4 -0.4 -0.3 1 -1.5 1.4 -1.2 1.8 -1.8 1 -1.4 -0.8 0.4 0.7 -1.3 3.3 -3.9 5.4 -5.5 7 -6 5.4 -1.7 -0.7 1.8 -1.9 3 -2.9 3 -1.2 0 -1.8 0.8 -1.8 2.1 0 1.9 -3.3 7.6 -5.1 8.9 -1 0.7 -2.7 13.7 -2.1 16.6 0.2 1.3 0.8 2.7 1.3 3 1.2 0.7 1.1 7.4 -0.1 7.4 -0.5 0 -1 -0.6 -1 -1.3z"/>
  <path d="M220.1 228 c-1.4 -6.7 -1.4 -7 0.8 -7 1.8 0 3.1 3.9 3.1 9.8 0 4.4 -2.8 2.3 -3.9 -2.8z"/>
  <path d="M250 225.5 c0 -3.1 0.3 -3.5 2.5 -3.5 3 0 3 0.3 0.8 4.1 -2.3 3.8 -3.3 3.7 -3.3 -0.6z"/>
  <path d="M218.6 212.8 c-1 -3.8 -0.7 -4.8 1.4 -4.8 1.6 0 2 0.7 2 3.5 0 4 -2.4 4.9 -3.4 1.3z"/>
  <path d="M216 201.8 c-0.7 -2.4 -1.8 -5.2 -2.6 -6.3 -2 -2.8 -1.8 -3.5 1.1 -3.5 1.8 0 2.5 0.5 2.5 1.9 0 1.1 0.5 2.1 1.1 2.3 0.6 0.2 1.3 2.5 1.6 5.1 0.7 6.3 -1.8 6.6 -3.7 0.5z"/>
  <path d="M234.8 193.9 c-1.2 -0.6 -1.8 -2.2 -1.8 -4.4 0 -1.9 0.2 -3.5 0.4 -3.5 0.3 0 1.8 1.3 3.4 3 1.9 1.9 3.6 2.8 4.6 2.4 1.2 -0.4 1.6 0 1.6 1.5 0 1.7 -0.6 2.1 -3.2 2.1 -1.8 0 -4.1 -0.5 -5 -1.1z"/>
  <path d="M247 192 c0 -1.3 0.7 -2 1.8 -2 1.1 0 2.7 0.9 3.7 2 1.8 2 1.7 2 -1.8 2 -3 0 -3.7 -0.4 -3.7 -2z"/>
  <path d="M187.1 190.6 c-0.9 -1 -0.8 -1.6 0.4 -2.6 1.3 -1.1 1.5 -0.8 1.5 1.4 0 3 -0.3 3.2 -1.9 1.2z"/>
  <path d="M286.5 191 c-8.8 -3.7 -12.7 -5 -13.8 -4.8 -0.6 0.1 -3.9 -1.5 -7.2 -3.7 -3.3 -2.1 -9.1 -5.8 -13 -8 -9.9 -5.9 -9.4 -7.1 2.8 -6.7 5.7 0.2 9.7 -0.1 9.7 -0.7 0 -0.5 -1.2 -1.8 -2.7 -2.9 -3 -2.2 -2.5 -3.8 1.7 -4.7 4.6 -1 4.5 -2.3 -0.4 -4.5 -5.5 -2.3 -5.9 -4 -1.1 -4 1.9 0 3.5 0.4 3.5 0.9 0 0.5 1.2 1.1 2.8 1.4 1.5 0.3 7.9 2.5 14.2 5 16.8 6.5 16 6.4 16 2.8 0 -2.4 0.7 -3.4 3 -4.6 1.6 -0.8 3.6 -1.5 4.5 -1.5 0.8 0 1.5 -0.7 1.5 -1.5 0 -0.8 0.4 -1.5 0.9 -1.5 0.5 0 1.2 -1.1 1.5 -2.5 0.4 -1.6 1.3 -2.5 2.6 -2.5 4.5 0 0.9 7.4 -5.7 11.6 -2.4 1.5 -4 3.1 -3.6 3.5 1.1 1.1 15.2 4.9 18 4.9 4.1 0 2.7 2.9 -1.7 3.6 -3.3 0.5 -4.1 1.1 -4.6 3.3 -1.2 6.3 -2 7.6 -4.7 8.1 -3.2 0.6 -7 3.7 -6.2 5 0.3 0.5 -1.2 1.8 -3.4 3 -4.1 2.1 -11 2.6 -14.6 1z"/>
  <path d="M203.2 182.5 l-5.4 -5.5 3.6 0 c2.9 0 3.6 0.4 3.6 2 0 1.3 0.7 2 2 2 1.6 0 2 0.7 2 3.5 0 1.9 -0.1 3.5 -0.2 3.5 -0.2 -0.1 -2.7 -2.5 -5.6 -5.5z"/>
  <path d="M230 180.5 c0 -3.9 1.4 -4.6 3 -1.6 1.6 3.1 1.2 5.1 -1 5.1 -1.6 0 -2 -0.7 -2 -3.5z"/>
  <path d="M60.5 182 c0.3 -0.5 1.9 -1.9 3.5 -3 l3 -2.1 0 3 c0 2.9 -0.3 3.1 -3.6 3.1 -2 0 -3.3 -0.4 -2.9 -1z"/>
  <path d="M216 180.1 c0 -0.5 1 -1.5 2.2 -2.3 2.2 -1.5 2.2 -1.5 -1.9 -4.4 -2.3 -1.6 -4.2 -3.2 -4.3 -3.6 0 -0.5 1.6 -0.8 3.5 -0.8 3.1 0 3.5 0.3 3.5 2.5 0 1.8 0.5 2.5 2 2.5 1.6 0 2 0.7 2 3.5 0 3.3 -0.2 3.5 -3.5 3.5 -1.9 0 -3.5 -0.4 -3.5 -0.9z"/>
  <path d="M191.5 174.2 c-4.4 -2 -3.4 -3.8 1.5 -2.7 2.1 0.5 3 1.3 3 2.6 0 1 -0.1 1.9 -0.2 1.9 -0.2 0 -2.1 -0.9 -4.3 -1.8z"/>
  <path d="M202 167 c-1.1 -0.7 -0.7 -1 1.8 -1 1.7 0 3.2 0.5 3.2 1 0 1.3 -3 1.3 -5 0z"/>
  <path d="M234.3 165.8 c-4.6 -1.5 -4.1 -2.7 0.8 -1.8 4.4 0.8 7.8 3.1 4.4 2.9 -1.1 -0.1 -3.5 -0.6 -5.2 -1.1z"/>
  <path d="M77.5 164.3 c1 -2.3 1 -4.3 0.2 -6.9 -0.7 -1.9 1.6 -6.5 2.6 -5.4 0.3 0.3 0.8 3.5 1.2 7.3 l0.7 6.7 -2.7 0 c-2.2 0 -2.6 -0.3 -2 -1.7z"/>
  <path d="M114 161 c0 -1.6 0.7 -2 3.5 -2 3.9 0 4.3 0.6 1.8 2.6 -2.7 2 -5.3 1.7 -5.3 -0.6z"/>
  <path d="M145.2 154.2 c-3.9 -1.1 -5.2 -1.9 -5 -3.1 0.4 -2.2 9.6 -2.7 12.3 -0.7 1.9 1.5 1.9 1.5 -0.9 1.6 -2.4 0 -2.7 0.2 -1.6 1.5 1.8 2.2 1.1 2.3 -4.8 0.7z"/>
  <path d="M204.1 148.9 c2.9 -4.1 15.9 -12.5 22.2 -14.4 2.8 -0.8 8.9 -2.2 13.6 -3.1 4.7 -0.9 9.6 -2 11 -2.6 l2.6 -1 -3.7 -1.9 c-4 -2.1 -4.4 -2.9 -2.8 -5.8 0.9 -1.7 9.9 -8.1 11.3 -8.1 0.4 0 0.7 1.1 0.7 2.5 0 2.1 -0.5 2.5 -3 2.5 -2.2 0 -3 0.5 -3 1.8 0 1 -0.5 2.3 -1.1 2.9 -0.7 0.7 -0.1 1.2 2 1.6 2.7 0.6 3.1 1 3.1 4.1 0 1.9 -0.4 3.8 -1 4.1 -0.5 0.3 -6.5 1.7 -13.2 3.1 -6.8 1.4 -15.2 3.9 -18.8 5.4 l-6.5 2.9 9.3 0.1 c8.5 0 9.2 0.1 9.2 2 0 1.9 -0.7 2 -10 2 -8.6 0 -10 -0.2 -10 -1.7 0 -1.2 -0.5 -1 -2.2 1 -2.1 2.3 -8.6 5.7 -11 5.7 -0.5 0 0.1 -1.4 1.3 -3.1z"/>
  <path d="M80.6 148.5 c0.5 -1.1 -0.2 -1.5 -2.7 -1.5 -4.1 0 -16.6 -2.5 -23.4 -4.7 -5.4 -1.7 -17.2 -7.3 -20.7 -9.8 -2.9 -1.9 -2.3 -1.9 4.3 0.3 6.7 2.3 15.9 3.5 17.9 2.2 1.1 -0.7 -0.2 -1.6 -5.4 -3.9 -9.1 -4.1 -12.3 -6.5 -14.6 -11.1 -2.5 -4.8 -2.5 -7.7 -0.2 -8.3 1.6 -0.4 1.6 -0.5 0 -0.6 -1.1 -0.1 -1.8 -0.9 -1.8 -2.1 0 -2.6 0.2 -2.6 5.6 1.6 8.2 6.2 18.6 10.6 40.5 17.3 15 4.5 17 4.8 22.3 2.6 3.6 -1.5 3.6 -1.5 3.6 1 0 2.1 -0.5 2.5 -2.7 2.5 -2.1 0.1 -4.7 2 -10.8 8 -5.2 5.2 -8.8 8 -10.2 8 -1.6 0 -2.1 -0.4 -1.7 -1.5z m1.5 -9.2 c2.1 -2 3.9 -4 3.9 -4.4 0 -0.4 -7.1 -3 -15.7 -5.8 -8.7 -2.8 -19.2 -6.8 -23.5 -8.9 -5.8 -2.8 -7.4 -3.3 -6.6 -1.9 1.4 2.7 8 7.2 14.4 9.7 l5.6 2.3 -0.4 4.9 c-0.2 2.7 0.1 4.8 0.7 4.9 0.6 0 3.7 0.6 7 1.4 9.1 2 10.3 1.9 14.6 -2.2z"/>
  <path d="M240.8 148.3 c-3.3 -0.8 -2 -3.3 1.7 -3.3 2.8 0 3.5 0.4 3.5 2 0 2 -1.4 2.3 -5.2 1.3z"/>
  <path d="M310.6 143.8 c-0.3 -1.3 -0.6 -3.6 -0.6 -5.3 0 -2.9 0 -2.9 2 -1 1.1 1.1 2.2 3.5 2.6 5.3 0.6 2.8 0.4 3.2 -1.4 3.2 -1.2 0 -2.2 -0.9 -2.6 -2.2z"/>
  <path d="M179.6 143.4 c-1.5 -0.9 -3.7 -1.4 -4.7 -1.1 -1.2 0.3 -2.6 -0.4 -3.9 -2 -1.1 -1.4 -2 -2.2 -2 -1.8 0 0.4 -0.7 0.2 -1.5 -0.5 -0.7 -0.6 -1.7 -3.2 -2.1 -5.6 -0.4 -2.6 -1.2 -4.4 -1.9 -4.4 -0.8 0 -1.6 -1.4 -2 -3.1 -0.4 -1.7 -1.3 -3.3 -2.1 -3.6 -0.8 -0.3 -1.4 -1.5 -1.4 -2.8 0 -1.2 -1 -3.8 -2.3 -5.6 -1.3 -1.9 -3 -4.8 -3.8 -6.4 -2.4 -4.6 -4.3 -7.8 -5.7 -9.3 -0.7 -0.8 -2.6 -4 -4.2 -7.2 -1.6 -3.2 -4.3 -7.8 -6 -10.3 -1.9 -2.8 -3 -5.7 -3 -7.8 l0.1 -3.4 4.5 4.9 c2.6 2.8 4.3 5.5 4 6.3 -0.4 0.9 -0.1 1.1 0.6 0.7 0.8 -0.5 0.9 -0.2 0.5 1 -0.4 1 -0.3 1.5 0.3 1.1 1 -0.6 6.5 9.3 5.6 10.2 -0.2 0.3 -1.6 -1.7 -3 -4.4 -1.4 -2.6 -2.5 -4.3 -2.5 -3.8 -0.1 1.8 4.4 9 5.6 9 3.7 0 19.2 29.2 17.8 33.6 -0.3 1 0.1 3.1 1 4.6 l1.6 2.8 -0.5 -3.1 c-0.4 -2.8 -0.3 -3.1 1.4 -2.7 1.2 0.3 2 0 2 -0.6 0 -0.7 2.6 -2.4 5.8 -3.8 3.1 -1.5 6.2 -3.4 6.9 -4.2 0.6 -0.9 1.5 -1.2 2 -0.8 1.2 1.3 1.7 15.7 0.5 15.7 -0.5 0 -1.2 -0.7 -1.6 -1.5 -0.9 -2.5 -2.5 -1.7 -4.3 2.1 -1.6 3.3 -1.6 3.7 -0.1 6.5 1 1.6 1.6 2.9 1.5 2.9 -0.1 -0.1 -1.5 -0.8 -3.1 -1.6z m-15 -21.1 c-1.7 -4.8 -6.4 -14.3 -7.1 -14.3 -0.3 0 0.5 2.1 1.8 4.8 1.3 2.6 3.2 6.8 4.2 9.5 2.1 5.7 3.1 5.7 1.1 0z"/>
  <path d="M252.5 143.3 c-7 -0.8 -7.5 -1.2 -7.5 -4.7 l0 -3.3 13.5 -1.9 c7.4 -1 13.5 -2.1 13.5 -2.6 0 -1 9.8 -1.1 16.4 -0.2 4.7 0.7 4.7 0.7 4.4 4.3 -0.3 3.5 -0.5 3.7 -6.8 5.8 -7.4 2.5 -13 3 -13 1 0 -0.8 3.1 -2.2 7.5 -3.5 4.1 -1.2 7.5 -2.7 7.5 -3.3 0 -1.3 -15.2 -0.7 -22 0.9 -2.5 0.5 -7.2 1.3 -10.5 1.7 -8.9 1 -4.5 2.8 7.2 2.8 8.4 0 9.3 0.2 9.3 1.8 0 1.7 -0.8 1.9 -8.2 1.8 -4.6 -0.1 -9.6 -0.4 -11.3 -0.6z"/>
  <path d="M136 140 c0 -2.2 2 -2.6 5.1 -1 3 1.6 2.3 3 -1.6 3 -2.8 0 -3.5 -0.4 -3.5 -2z"/>
  <path d="M299.3 136 c-1.8 -0.7 -2.3 -1.7 -2.3 -4.5 0 -3 0.3 -3.5 2.3 -3.5 1.8 0 2.3 0.5 2.3 2.1 -0.1 1.5 0.8 2.4 3.3 3.3 5 1.6 5.2 3.6 0.4 3.5 -2.1 0 -4.8 -0.4 -6 -0.9z"/>
  <path d="M109 129.6 c0 -1.5 3 -2.6 7.3 -2.6 2 0 2.7 0.5 2.7 2 0 1.7 -0.7 2 -5 2 -3.6 0 -5 -0.4 -5 -1.4z"/>
  <path d="M206 130.7 c0 -0.2 2 -1.8 4.5 -3.6 5 -3.6 5.4 -4.9 2.5 -7.6 -1.9 -1.7 -2.1 -1.7 -5.2 0.7 -1.8 1.4 -5.5 3.3 -8.3 4.3 -2.7 1 -5.8 2.5 -6.7 3.3 -1.7 1.4 -1.8 1.2 -1.8 -2.4 0 -4.8 2.8 -10.5 5.6 -11.5 1.8 -0.6 2.1 -0.4 1.7 1.2 -0.3 1 -0.1 1.9 0.5 1.9 1.9 0 6.3 -2 7.9 -3.6 1 -0.9 2.5 -1.3 3.9 -1 1.3 0.4 4.7 -0.3 7.6 -1.4 2.9 -1.1 7.1 -2 9.3 -2 3.5 0.1 3.8 0.2 2.3 1.4 -2.7 2 -2.2 3.3 2.3 6.2 4 2.5 4.1 2.6 2.2 4.6 -2.9 3.2 -10.3 6.5 -18.6 8.2 -7.7 1.6 -9.7 1.9 -9.7 1.3z"/>
  <path d="M303 124.1 c0 -2.6 0.4 -3.1 2.5 -3.1 1.4 0 2.5 -0.6 2.5 -1.3 0 -1.8 8.3 -5.7 12 -5.7 4.8 0 3.5 1.7 -4.2 5.6 -4 2 -8.5 4.5 -10 5.6 l-2.8 1.9 0 -3z"/>
  <path d="M184.5 116.1 c-0.4 -1.3 -1.2 -1.7 -2.5 -1.4 -3 0.8 -2.4 -1.5 0.9 -3.2 1.6 -0.8 3.1 -2 3.4 -2.7 0.3 -0.7 0.6 0.8 0.6 3.4 0.1 4.9 -1.3 7.2 -2.4 3.9z"/>
  <path d="M324 113.6 c0 -2 0.9 -2.6 5.8 -3.9 3.1 -0.8 7.2 -1.8 9 -2.2 2.5 -0.5 3.2 -1.2 3.2 -3.1 0 -2.2 0.2 -2.3 2.7 -1.3 5.2 2 9.3 4.1 9.3 4.9 0 0.4 -1.5 1 -3.2 1.3 -9.5 1.4 -16 2.9 -21.1 4.6 l-5.7 2 0 -2.3z"/>
  <path d="M262 111 c0 -0.5 1.2 -1.6 2.8 -2.4 1.5 -0.8 4.3 -3.1 6.2 -5.2 6 -6.5 12 -7.8 21.7 -4.7 6.1 1.9 7.1 4.3 1.8 4.3 -1.9 0 -3.5 -0.4 -3.5 -1 0 -1.4 -7.2 -1.2 -12 0.2 -2.2 0.7 -4 1.9 -4 2.5 0 0.7 -0.7 1.3 -1.5 1.3 -0.8 0 -1.5 0.9 -1.5 2 0 1 -0.9 2.4 -1.9 3 -2.5 1.3 -8.1 1.3 -8.1 0z"/>
  <path d="M115 107.4 c-7.4 -1.3 -16.6 -3.1 -20.5 -4 -7.5 -1.8 -19.2 -7.3 -22.1 -10.5 -1.7 -1.8 -1.6 -1.9 1.5 -1.9 1.8 0 5.8 1.3 8.9 2.8 7.2 3.6 11.1 4.6 29.7 7.7 17.7 3 21.5 4.2 21.5 6.7 0 2.3 -1.6 2.2 -19 -0.8z"/>
  <path d="M233 104.6 c0 -2.4 0.8 -4.4 2.3 -5.8 l2.2 -2.3 0.3 2.3 c0.2 1.2 0.6 2.2 0.9 2.2 1.5 0 11.2 -5.5 13.5 -7.7 1.5 -1.5 3.1 -2.4 3.4 -2 2.5 2.4 -6.1 8.9 -21.8 16.5 -0.5 0.2 -0.8 -1.3 -0.8 -3.2z"/>
  <path d="M326.3 103.3 c-5.5 -0.3 -6.3 -0.7 -6.3 -2.3 0 -1.7 0.7 -2 4.5 -2 6.7 0 14.5 1.9 14.5 3.6 0 1 -1 1.3 -3.2 1.2 -1.8 -0.1 -6.1 -0.3 -9.5 -0.5z"/>
  <path d="M299 101.6 c0 -0.7 1 -1.6 2.3 -2 4.1 -1.1 5.7 -0.7 5.7 1.4 0 1.7 -0.7 2 -4 2 -2.7 0 -4 -0.4 -4 -1.4z"/>
 </g>
 <g fill="#99a1c0">
  <path d="M89 295.9 c5.7 -5 9 -7.1 9 -5.9 0 1.7 3.5 0.3 13.9 -5.6 5.2 -3 9.8 -5.4 10.2 -5.4 0.5 0 0.9 -0.4 0.9 -0.8 0 -0.5 1.2 -1.5 2.8 -2.3 1.5 -0.8 3.3 -2.2 4 -3.1 0.7 -1 1.7 -1.8 2.2 -1.8 0.5 0 3.2 -2.5 6.1 -5.5 3.4 -3.6 6 -5.5 7.5 -5.5 1.5 0 2.4 -0.6 2.4 -1.6 0 -0.9 1.4 -3.2 3.1 -5.2 5 -5.7 12.9 -22.9 13.6 -29.5 0.6 -5.8 2.5 -7.7 3.6 -3.6 1.6 6 -7.5 30.9 -13.3 36.4 -24.2 22.8 -40.3 33.9 -58.4 39.9 -10.4 3.4 -12 3.3 -7.6 -0.5z"/>
  <path d="M102.7 283.6 c1 -1.3 3.7 -4.7 6 -7.7 5.7 -7.4 9.5 -15.4 10.1 -21 0.5 -5.1 -1.3 -7.6 -3.1 -4.3 -1.7 3.1 -6.8 7.4 -8.7 7.4 -2.5 0 -5 -3.2 -5.7 -7.4 -0.3 -2.3 -1.1 -3.6 -2.1 -3.6 -1.1 0 -1.3 -0.7 -0.8 -3.2 1.8 -8.7 1.8 -12.5 0.1 -15.1 -1.4 -2.2 -1.6 -4.5 -1.3 -12.4 l0.3 -9.8 4.9 -7 c2.6 -3.8 5.9 -7.8 7.3 -8.8 l2.4 -1.9 -0.7 3.6 c-0.4 2.3 -0.2 4.2 0.5 5 1.3 1.5 6.2 -1.7 25.6 -16.4 3.9 -2.9 10.5 -7 14.8 -9.1 7.6 -3.7 18.3 -6.7 19.4 -5.5 0.4 0.3 -1.5 2.4 -4 4.7 -2.6 2.2 -4.7 4.6 -4.7 5.3 0 0.7 -1.4 2.5 -3.1 4.2 -6.3 6 -12.4 17.1 -14.4 26.2 l-0.7 3.3 4.1 -2 c2.2 -1.2 5.4 -2.1 7.1 -2.1 5.7 0 12 4.8 12 9.2 0 2.8 -2.5 2.1 -6.3 -1.7 -3.8 -3.8 -5.8 -4.2 -9.7 -2 -1.4 0.8 -3.9 1.4 -5.7 1.5 -2.9 0 -3.3 -0.4 -3.9 -3.5 -0.7 -4 1.2 -12.9 3.2 -15 0.8 -0.7 1.4 -2.3 1.4 -3.4 0 -1.2 0.5 -2.1 1 -2.1 0.6 0 1 -0.7 1 -1.5 0 -0.8 0.9 -2.4 2 -3.5 1.1 -1.1 2 -2.4 2 -2.8 0 -0.5 1.1 -1.9 2.5 -3.2 1.4 -1.3 2.5 -2.7 2.5 -3.2 0 -0.4 -1.1 -0.8 -2.5 -0.8 -1.5 0 -2.5 0.6 -2.5 1.4 0 0.8 -1.6 2 -3.5 2.7 -1.9 0.7 -3.5 1.7 -3.5 2.1 0 0.4 -0.6 0.8 -1.4 0.8 -0.8 0 -1.6 0.7 -2 1.5 -0.3 0.8 -1.1 1.5 -1.8 1.5 -0.7 0 -1.9 0.9 -2.6 2 -0.7 1.1 -1.8 2 -2.5 2 -0.6 0 -3.4 3 -6.2 6.5 -2.7 3.6 -6.2 7 -7.7 7.6 -4 1.6 -9.5 8.1 -10.7 12.6 -0.6 2.1 -1.1 6.1 -1.1 8.9 0 2.8 -0.9 8.6 -2 12.9 -2 8 -2.6 15 -1.2 15.8 0.8 0.6 5.2 -2.7 5.2 -3.8 0 -1.6 3.1 -3.5 5.9 -3.5 3.6 0 5.1 2.2 5.1 7.8 0 4.7 -2.7 14.2 -4 14.2 -0.6 0 -1 0.9 -1 1.9 0 1.1 -0.7 2.6 -1.5 3.5 -0.8 0.8 -1.5 1.9 -1.5 2.5 0 0.6 -0.4 1.1 -1 1.1 -0.5 0 -1 0.7 -1 1.5 0 0.9 -0.7 1.8 -1.5 2.1 -0.8 0.4 -1.5 1.2 -1.5 1.9 0 2 -3.5 4.5 -6.4 4.5 -2.8 0 -2.8 0 -0.9 -2.4z"/>
  <path d="M243.9 268.2 c-4.9 -3.2 -9.9 -8.4 -14.8 -15.5 l-3.2 -4.7 3.1 0 c2 0 3 0.5 3 1.5 0 0.8 0.5 1.5 1 1.5 0.6 0 1 0.9 1 2 0 1.1 0.4 2 0.8 2 0.4 0 0.8 -2.7 0.7 -6 0 -3.8 -0.4 -6 -1.1 -6 -0.7 0 -1.7 -2.8 -2.3 -6.3 -1.5 -8.6 -1.4 -11.7 0.3 -11.7 1.4 0 1.9 1.4 3.1 9.8 0.4 2.3 1.1 4.2 1.5 4.2 0.9 0 4.4 -8.6 5.5 -13.7 0.4 -2 1.3 -3.3 2.2 -3.3 1.3 0 1.5 0.9 1 5.3 l-0.7 5.2 4.1 -8.8 c5.1 -11 5.7 -15.1 3.4 -22.8 -2 -6.5 -1.7 -6.3 -11.1 -6 -7.5 0.3 -8.7 -0.6 -10.5 -8.8 -0.7 -3.4 -1.7 -6.1 -2.1 -6.1 -0.4 0 -0.8 -0.8 -0.8 -1.9 0 -1 -0.9 -2.1 -2 -2.4 -1.7 -0.4 -2 0 -2 2.4 0 2.2 -0.5 2.9 -2 2.9 -1.1 0 -2 0.5 -2 1.1 0 1.4 -13.2 0.2 -14.1 -1.3 -0.3 -0.5 -1.3 -0.8 -2.2 -0.6 -2.6 0.5 -7.7 -3.4 -7.7 -5.9 l0 -2.3 5.2 2 c2.9 1.1 7.1 3.3 9.4 5 4.9 3.4 5.4 3.6 5.4 1.4 0 -0.9 0.9 -1.8 2 -2.1 1.1 -0.3 2 -0.9 2 -1.3 0 -1.8 -6.4 -6 -12.3 -8.2 l-6.2 -2.3 6 -0.3 c14.9 -0.8 22.7 4.1 26.6 16.8 2.3 7.8 4.2 9.6 8.4 8 8.4 -3.2 12.8 1.2 15.5 15.3 1.4 7.3 -4.1 20.7 -14.6 35.4 -2.4 3.4 -4.4 6.7 -4.4 7.3 0 1.8 4.9 13 7.6 17.2 1.4 2.2 2.4 4.2 2.2 4.4 -0.3 0.2 -2.4 -0.9 -4.9 -2.4z"/>
  <path d="M125 264.6 c0 -2.4 0.3 -4.6 0.8 -4.8 2.4 -1 11 -24.9 11.2 -31 0 -0.5 0.9 -0.8 2 -0.8 1.4 0 2 -0.7 2 -2.2 0.1 -2.6 2.2 -5.8 3.9 -5.8 0.6 0 1.1 -0.4 1.1 -1 0 -0.5 1.6 -1 3.6 -1 l3.7 0 -0.5 9.3 c-0.4 6.6 -1.3 11.2 -3.2 16.2 -1.5 3.8 -3 7.2 -3.4 7.5 -0.4 0.3 -1.7 2.3 -2.8 4.5 -1.2 2.2 -3.1 4.4 -4.2 5 -1.2 0.5 -2.2 1.9 -2.4 3 -0.2 1.1 -1.3 2.4 -2.5 3 -1.3 0.5 -2.3 1.3 -2.3 1.7 0 0.5 -1.6 0.8 -3.5 0.8 -3.5 0 -3.5 0 -3.5 -4.4z m8.4 -3.6 c9.6 -10.6 15.6 -23.9 15.5 -34.3 0 -5.2 -0.2 -5.9 -1.2 -4.3 -0.7 1 -2.6 3.6 -4.3 5.7 -2 2.4 -3.4 5.5 -3.8 8.4 -1 6.5 -4 14.8 -8.1 22.2 -1.9 3.5 -3.1 6.3 -2.6 6.3 0.5 0 2.5 -1.8 4.5 -4z"/>
  <path d="M224.4 243.5 c-1.9 -4.6 -1.8 -6.5 0.5 -6.5 2 0 3.1 2.5 3.1 7.3 0 3.8 -1.8 3.4 -3.6 -0.8z"/>
  <path d="M220.1 227 c-1.7 -8 -1.5 -11 0.9 -11 1.5 0 2 0.7 2 2.8 0 1.5 0.3 5.1 0.6 8 0.6 4.3 0.4 5.2 -0.9 5.2 -1 0 -1.9 -1.6 -2.6 -5z"/>
  <path d="M231 217.6 c0 -5 0.9 -6.6 3.6 -6.6 1.3 0 2.4 -0.4 2.4 -1 0 -0.5 1.6 -1 3.5 -1 2.4 0 3.5 0.5 3.5 1.5 0 0.8 0.5 1.5 1 1.5 0.6 0 1 1.6 1 3.5 0 4.4 -2.1 4.7 -3.7 0.5 -1.9 -5 -6.3 -3.8 -7.8 2.3 -1 4 -3.5 3.5 -3.5 -0.7z"/>
  <path d="M218.1 209 c-1.4 -6.7 -1.4 -7 0.8 -7 1.9 0 3.1 3.4 3.1 9.1 0 5 -2.7 3.5 -3.9 -2.1z"/>
  <path d="M212.2 193.8 c-2.3 -3.5 -4.9 -7.3 -5.8 -8.5 -1.6 -2.3 -1.6 -2.3 1.6 -2.3 2.3 0 3.3 0.5 3.7 1.9 0.3 1.1 1.1 2.2 1.9 2.5 0.8 0.3 1.4 1.7 1.4 3.1 0 1.6 0.6 2.5 1.5 2.5 1 0 1.5 1.1 1.5 3.5 0 1.9 -0.4 3.5 -0.8 3.5 -0.5 0 -2.7 -2.8 -5 -6.2z"/>
  <path d="M189.5 172.9 c-0.4 -0.6 -0.5 -1.2 -0.2 -1.5 0.7 -0.7 3.7 0.7 3.7 1.7 0 1.3 -2.7 1.1 -3.5 -0.2z"/>
  <path d="M165.2 134.8 c-1.4 -1.4 -1.6 -5.8 -0.2 -5.8 0.8 0 4 5.1 4 6.5 0 1 -2.6 0.5 -3.8 -0.7z"/>
 </g>
 <g fill="#a09fb1">
  <path d="M227.8 250.3 c-2.9 -3.4 -3 -5.3 -0.3 -5.3 2.2 0 2.5 0.4 2.5 3.5 0 4 -0.1 4.1 -2.2 1.8z"/>
  <path d="M221.6 234.8 c-1 -3.8 -0.7 -4.8 1.4 -4.8 1.6 0 2 0.7 2 3.5 0 4 -2.4 4.9 -3.4 1.3z"/>
  <path d="M240 234.4 c0 -2.1 1.8 -5.4 3 -5.4 0.6 0 1 1.6 1 3.5 0 2.8 -0.4 3.5 -2 3.5 -1.1 0 -2 -0.7 -2 -1.6z"/>
  <path d="M219.8 225.3 c-0.6 -2.8 0.2 -5.3 1.8 -5.3 0.9 0 1.4 1.1 1.4 3.5 0 3.7 -2.4 5 -3.2 1.8z"/>
  <path d="M233 213.9 c0 -4 1.1 -4.9 6 -4.9 4.8 0 6 0.9 6 4.6 0 4 -1.1 4.4 -3 1 -1.1 -2.1 -1.6 -2.3 -3.8 -1.5 -1.4 0.5 -3.1 1.7 -3.8 2.7 -1.2 1.5 -1.3 1.3 -1.4 -1.9z"/>
  <path d="M213.8 195.3 c-2.9 -3.4 -3 -5.3 -0.3 -5.3 2.2 0 2.5 0.4 2.5 3.5 0 4 -0.1 4.1 -2.2 1.8z"/>
  <path d="M204.5 183.3 c-2.7 -2.9 -7.1 -6.2 -9.7 -7.5 -5.8 -2.8 -7.1 -5 -2.5 -4.2 6.3 1.2 15 4.5 16.7 6.5 0.3 0.3 2 1.4 3.8 2.4 4 2.4 4.1 3.5 0.3 3.5 -2.3 0 -3 0.5 -3.3 2.3 -0.3 2 -0.8 1.7 -5.3 -3z m3 -2 c-1.1 -0.3 -2.3 -1 -2.7 -1.7 -0.5 -0.7 -0.8 -0.5 -0.8 0.7 0 1.2 0.7 1.7 2.8 1.6 2.1 -0.1 2.2 -0.2 0.7 -0.6z"/>
  <path d="M271.2 181 c0 -1.9 0.2 -2.7 0.5 -1.7 0.2 0.9 0.2 2.5 0 3.5 -0.3 0.9 -0.5 0.1 -0.5 -1.8z"/>
  <path d="M229 179.5 c0 -1.6 -0.6 -2.5 -1.5 -2.5 -1 0 -1.5 -1 -1.5 -3 0 -2.7 0.2 -2.9 1.8 -1.9 2.1 1.3 5.2 6.4 5.2 8.5 0 0.8 -0.9 1.4 -2 1.4 -1.5 0 -2 -0.7 -2 -2.5z"/>
  <path d="M300.8 168.3 c-3.3 -0.8 -2 -3.3 1.7 -3.3 2.8 0 3.5 0.4 3.5 2 0 2 -1.4 2.3 -5.2 1.3z"/>
  <path d="M285.3 163.5 c-4.3 -1.8 -4.2 -3.5 0.2 -3.5 3.1 0 3.5 0.3 3.5 2.5 0 1.4 -0.1 2.5 -0.2 2.5 -0.2 -0.1 -1.8 -0.7 -3.5 -1.5z"/>
  <path d="M275.1 159.7 c-6.6 -2.7 -7.7 -4.7 -2.7 -4.7 2 0 3.6 0.5 3.6 1 0 0.6 1.1 1 2.5 1 2 0 2.5 0.5 2.5 2.5 0 1.4 -0.1 2.5 -0.2 2.5 -0.2 -0.1 -2.7 -1.1 -5.7 -2.3z"/>
  <path d="M80.9 148.3 c1.3 -2.4 14.1 -15 14.1 -13.9 0 3.3 -7.1 12 -11.8 14.5 -2.9 1.5 -3.4 1.4 -2.3 -0.6z"/>
  <path d="M74.5 146.3 c-1.1 -0.2 -5.6 -1.1 -9.9 -1.9 -8.6 -1.7 -24.8 -7.7 -26.7 -10 -1.4 -1.7 -1.5 -1.7 4.5 0.1 6.4 2 14.6 2 14.6 0.1 0 -0.7 -2.5 -2.4 -5.5 -3.6 -11.3 -4.6 -17.4 -11.5 -17.5 -19.7 0 -4.1 1.3 -4.1 5.8 -0.1 5.2 4.5 15.2 8.9 34.9 15.3 l17.3 5.7 -1.6 3 c-1.9 3.7 -7 9 -10.1 10.7 -2.2 1.1 -2.4 1.2 -5.8 0.4z"/>
  <path d="M165.2 134.8 c-1.7 -2.6 -3.2 -5.6 -3.2 -6.7 0 -1.2 -0.4 -2.1 -1 -2.1 -0.5 0 -1 -1.6 -1 -3.5 0 -2.4 -0.5 -3.5 -1.5 -3.5 -1 0 -1.5 -1 -1.5 -3.4 0 -6 1.7 -4.9 5.1 3.4 2.2 5.5 3.6 7.6 4.2 6.8 0.5 -0.8 0.6 -0.5 0.2 0.9 -0.3 1.3 0.1 3.8 1 5.7 0.9 1.9 1.5 4.3 1.3 5.3 -0.3 1.4 -1.1 0.7 -3.6 -2.9z"/>
  <path d="M150 119 l-3.5 -2.9 3.8 -0.1 c3.5 0 3.7 0.2 3.7 3 0 1.7 -0.1 3 -0.3 3 -0.1 0 -1.8 -1.3 -3.7 -3z"/>
  <path d="M137.5 112.4 c-3.8 -1.8 -7.6 -3.2 -8.2 -2.9 -0.7 0.2 -1.3 0 -1.3 -0.5 0 -0.5 -0.8 -1.1 -1.7 -1.4 -4.4 -1.3 -25.8 -4.6 -27 -4.2 -0.7 0.3 -1.3 0.1 -1.3 -0.5 0 -0.7 -1.2 -0.9 -3 -0.7 -1.6 0.3 -3 0.1 -3 -0.3 0 -0.4 -1.4 -1 -3.1 -1.4 -3.7 -0.8 -15.5 -6.7 -18.5 -9.2 -2.7 -2.3 -5.9 -7.2 -5.1 -7.9 0.3 -0.4 1.9 0.3 3.6 1.5 1.6 1.2 5.5 3.3 8.6 4.6 3 1.4 5.5 3 5.5 3.6 0 0.6 0.8 0.8 1.9 0.4 2.9 -0.9 6.9 0.4 7.4 2.6 0.3 1.3 1.4 1.9 3.1 1.9 1.4 0 2.6 0.5 2.6 1 0 0.6 1.6 1 3.6 1 4.6 0 26 3.7 29.9 5.2 11.1 4.1 14.5 6.1 14.5 8.4 0 3 0 3 -8.5 -1.2z"/>
  <path d="M149.7 103.3 c-0.6 -1.6 -1.7 -3.2 -2.4 -3.6 -0.7 -0.4 -1.3 -1.9 -1.3 -3.2 0 -1.4 -0.4 -2.5 -1 -2.5 -0.5 0 -1 -1.5 -1 -3.2 l0 -3.3 2 3.3 c1.1 1.8 2.7 3.5 3.5 3.8 0.8 0.4 1.5 1.2 1.5 2 0 0.7 0.8 1.8 1.8 2.3 0.9 0.6 1.3 1.1 0.8 1.1 -0.5 0 -0.4 0.6 0.1 1.3 0.6 0.6 1.3 2 1.6 3 0.5 1.3 0.1 1.7 -1.9 1.7 -1.7 0 -2.8 -0.8 -3.7 -2.7z"/>
  <path d="M120 96 c0 -2.1 1 -2.4 4.8 -1.4 3.6 1 2.7 3.4 -1.3 3.4 -2.8 0 -3.5 -0.4 -3.5 -2z"/>
  <path d="M90 91.5 c-1 -1.2 -1 -1.5 0.4 -1.5 0.9 0 1.6 0.7 1.6 1.5 0 0.8 -0.2 1.5 -0.4 1.5 -0.2 0 -0.9 -0.7 -1.6 -1.5z"/>
  <path d="M120.2 89.3 c-3.4 -2 -6.2 -4 -6.2 -4.5 0 -0.4 1.6 -0.8 3.5 -0.8 1.9 0 3.5 0.5 3.5 1 0 0.6 0.7 1 1.5 1 0.9 0 1.5 0.9 1.5 2.5 0 1.6 0.6 2.5 1.5 2.5 0.8 0 1.5 0.5 1.5 1 0 1.4 0.2 1.5 -6.8 -2.7z"/>
  <path d="M105 89 l0 -3 3.5 2.2 c4.4 2.9 4.4 3.8 0 3.8 -3.2 0 -3.5 -0.2 -3.5 -3z"/>
  <path d="M138.2 84.5 c-0.7 -1.4 -1.2 -3.5 -1.2 -4.5 0 -1.1 -0.7 -2 -1.5 -2 -0.8 0 -1.5 -0.6 -1.5 -1.4 0 -0.8 -0.7 -1.6 -1.5 -2 -0.8 -0.3 -1.5 -1.5 -1.5 -2.6 0 -1.1 -0.7 -2 -1.6 -2 -1.8 0 -4.4 -2.3 -4.4 -3.9 0 -0.6 -1 -1.1 -2.2 -1.1 -3.4 0 -5 -1.4 -4.6 -3.9 0.3 -2.2 0.3 -2.2 6.3 0.9 3.3 1.8 6.8 4.2 7.8 5.3 3.1 3.7 8.8 12.7 10.3 16.3 1.4 3.3 1.4 3.4 -0.9 3.4 -1.6 0 -2.8 -0.9 -3.5 -2.5z"/>
  <path d="M83.7 76.8 c-4.2 -14.1 -4.4 -15.8 -1.9 -15.8 1.7 0 2.2 0.8 2.7 5.5 0.4 3 1.1 5.5 1.5 5.5 0.4 0 1.3 2 1.9 4.4 3.2 12.7 -0.5 12.9 -4.2 0.4z"/>
  <path d="M98 82.4 c0 -3.9 0.9 -3.8 4 0.6 l2.1 3 -3 0 c-2.9 0 -3.1 -0.3 -3.1 -3.6z"/>
  <path d="M102 75.2 c-3.8 -3.5 -5 -5.1 -3.7 -5.2 0.9 0 1.7 0.5 1.7 1 0 0.6 1.2 1 2.6 1 3.4 0 5.6 2.4 5.2 5.7 -0.3 2.6 -0.3 2.6 -5.8 -2.5z"/>
  <path d="M93 73.5 c0 -2.2 0.5 -3.5 1.3 -3.5 0.8 0 1.8 1.6 2.4 3.5 1.1 3.3 1 3.5 -1.3 3.5 -2.1 0 -2.4 -0.5 -2.4 -3.5z"/>
  <path d="M80 58.8 c0 -2.9 1.3 -5.8 2.5 -5.8 0.8 0 1.5 -0.9 1.7 -2.1 0.3 -1.9 0.6 -1.8 4.3 1.6 l4 3.6 -4.2 -0.3 c-3.9 -0.3 -4.3 -0.1 -4.3 1.9 0 1.6 -0.6 2.3 -2 2.3 -1.1 0 -2 -0.6 -2 -1.2z"/>
 </g>
 <g fill="#e68a30">
  <path d="M53.1 188.1 c-0.5 -0.4 2.1 -2.8 5.9 -5.4 6 -4 7 -4.4 7 -2.7 0 1.1 0.3 2 0.6 2 1.6 0 15.7 -7.3 17.5 -9.1 2.7 -2.7 8.9 -2.6 8.9 0.1 0 1 0.5 3.1 1.2 4.5 0.9 1.9 1.9 2.5 4.5 2.5 1.8 0 3.3 -0.4 3.3 -0.9 0 -0.5 2 -1.7 4.5 -2.8 5.4 -2.2 5.7 -3.3 1 -3.3 -3.1 0 -3.5 -0.3 -3.5 -2.5 0 -1.4 -0.4 -2.5 -1 -2.5 -1.5 0 -1.2 -6 0.4 -7.6 0.8 -0.8 2.8 -1.4 4.5 -1.4 2.4 0 3.1 0.4 3.1 2 0 1.4 -0.7 2 -2.4 2 -2.3 0 -3.6 1.6 -3.6 4.5 0 2.6 6.5 2.8 13.9 0.6 8.6 -2.6 8.9 -2.6 6.5 0 -6.1 6.8 -22.6 15.9 -28.9 15.9 -3.8 0 -6.5 -2.8 -6.5 -6.7 0 -2.9 -0.6 -2.9 -4.7 0.3 -3.8 2.9 -12.1 6.7 -18 8.3 -7.1 1.9 -13.1 2.8 -14.2 2.2z"/>
  <path d="M75.5 167 c3.3 -4.4 3.6 -5.4 2.7 -7.9 -1.3 -3.6 2 -11.1 6.7 -15.5 l3.1 -3 0 3.7 c0 3 -0.4 3.7 -2 3.7 -1.5 0 -2 0.7 -2 2.5 0 1.4 -0.4 2.5 -1 2.5 -0.5 0 -1 1.7 -1 3.8 0 6.3 -1.2 11.2 -2.6 11.2 -0.8 0 -1.4 0.9 -1.4 2 0 1.6 -0.7 2 -3.1 2 l-3.1 0 3.7 -5z"/>
  <path d="M320 168.5 c0 -1.6 2.7 -2 4.8 -0.6 1.1 0.7 1 1 -0.3 1.5 -2.8 1 -4.5 0.7 -4.5 -0.9z"/>
  <path d="M125 155.7 c0 -2.1 0.8 -2.8 4.7 -4.1 10.2 -3.5 14.5 -0.6 4.6 3 -3.2 1.2 -6.6 2.4 -7.5 2.9 -1.5 0.6 -1.8 0.2 -1.8 -1.8z"/>
  <path d="M156.3 152.8 c-1.8 -0.6 -3.3 -1.6 -3.3 -2.2 0 -0.8 -0.3 -0.7 -0.8 0.1 -1.4 2.1 -7.2 2 -7.2 -0.2 0 -1 1.1 -1.5 3.3 -1.6 1.7 -0.1 2.4 -0.3 1.5 -0.6 -1.8 -0.5 -2.6 -5.3 -0.9 -5.3 1.3 0 11.4 7.7 12.4 9.5 0.9 1.7 -0.2 1.8 -5 0.3z"/>
  <path d="M257.3 152.8 c-4.5 -1.5 -4.3 -3.8 0.2 -3.8 3.1 0 3.5 0.3 3.5 2.5 0 1.4 -0.1 2.5 -0.2 2.4 -0.2 -0.1 -1.8 -0.6 -3.5 -1.1z"/>
  <path d="M245.8 149.3 c-3.3 -0.8 -2 -3.3 1.7 -3.3 2.8 0 3.5 0.4 3.5 2 0 2 -1.4 2.3 -5.2 1.3z"/>
  <path d="M238.5 147.5 c-0.5 -0.2 -2.7 -0.6 -4.7 -1 -2.4 -0.4 -3.8 -1.1 -3.8 -2 0 -1.7 1.5 -1.8 8.4 -0.9 3.6 0.5 4.6 1.1 4.6 2.5 0 1.8 -1.8 2.3 -4.5 1.4z"/>
  <path d="M109 143 c0 -0.5 -0.9 -1 -2 -1 -3.1 0 -2.9 -6.7 0.3 -8 2.1 -0.8 2.1 -0.9 -0.5 -0.9 -1.4 -0.1 -2.8 0.4 -3 1 -0.2 0.6 -2.5 1.3 -5.2 1.6 -3.8 0.5 -4.8 0.3 -4.4 -0.8 0.6 -1.8 13.5 -6.7 19.8 -7.4 4.9 -0.5 13 0.9 13 2.3 0 0.4 -2.6 1.5 -5.8 2.4 -6 1.8 -12.3 5.4 -13 7.6 -0.6 1.9 2.9 1.4 7.3 -1 5.3 -2.9 16.8 -3 23.9 -0.2 6.2 2.4 7.2 4.4 2.2 4.4 -2 0 -3.6 -0.4 -3.6 -0.9 0 -1.7 -12.6 -2.4 -17.5 -1 -2.5 0.7 -4.5 1.7 -4.5 2.1 0 0.4 -1.6 0.8 -3.5 0.8 -1.9 0 -3.5 -0.4 -3.5 -1z"/>
  <path d="M186.6 136.2 c-0.9 -2.7 -1.8 -9.3 -2.1 -14.7 -0.4 -9.1 -0.2 -10 2.1 -13.4 1.3 -1.9 2.4 -3.9 2.4 -4.4 0 -0.4 1.8 -3.5 4.1 -6.8 l4.1 -6 -3.6 0.7 c-3.2 0.6 -3.6 0.4 -3.6 -1.6 0 -3.7 3 -8.8 8.6 -14.5 3 -3 5.4 -6.3 5.4 -7.2 0 -1 0.9 -3.6 1.9 -5.9 2.1 -4.7 6.4 -7 11.2 -6 2.8 0.5 3.7 0 9.4 -5.7 8.1 -8.1 15.7 -19.8 17.9 -27.6 0.9 -3.3 1.9 -6.1 2.2 -6.1 0.3 0 1.2 1.6 2 3.5 2 4.8 1.9 22.5 -0.2 29.6 -0.9 3 -3.8 9.6 -6.6 14.8 -4.6 8.6 -5 9.7 -4.2 13.5 1.2 6.6 1 19.8 -0.4 24.2 -1 2.9 -2.5 4.7 -5.5 6.6 -8.5 5.2 -19.4 8 -24.1 6.2 -2.4 -0.9 -1.9 -2 1.7 -3.4 8.2 -3.3 12.7 -8.9 12.7 -15.9 0 -4.5 -1.7 -6.3 -3.3 -3.5 -0.5 1 -5.4 6.2 -10.8 11.5 -5.5 5.3 -9.9 10.2 -9.9 11 0 1.2 -2.7 7.7 -5.5 12.9 -0.7 1.4 -1.6 4.9 -2 7.8 -0.4 2.8 -1.1 5.2 -1.5 5.2 -0.5 0 -1.6 -2.2 -2.4 -4.8z"/>
  <path d="M251.8 140.3 c1.2 -0.2 3 -0.2 4 0 0.9 0.3 -0.1 0.5 -2.3 0.4 -2.2 0 -3 -0.2 -1.7 -0.4z"/>
  <path d="M250 136 c0 -1.6 0.7 -2 3.5 -2 4 0 4.9 2.4 1.3 3.4 -3.8 1 -4.8 0.7 -4.8 -1.4z"/>
  <path d="M237 133.6 c0 -1.3 2.8 -2.6 5.8 -2.6 0.6 0 1.2 0.9 1.2 2 0 1.6 -0.7 2 -3.5 2 -2.3 0 -3.5 -0.5 -3.5 -1.4z"/>
  <path d="M252 128.8 l2.5 -1.1 -2.7 -1 c-4 -1.5 -3.6 -3.7 0.7 -3.7 3.3 0 3.5 0.2 3.5 3.5 0 3.3 -0.2 3.5 -3.2 3.4 -3.3 0 -3.3 0 -0.8 -1.1z"/>
 </g>
 <g fill="#df4d26">
  <path d="M56.4 185 c5.9 -3.8 13.7 -11 18.8 -17.4 3.5 -4.4 3.8 -5.4 3.3 -8.7 -0.9 -5.4 2.2 -11.1 10.2 -19 5.6 -5.5 8.1 -7.1 14.1 -9.3 7.6 -2.7 19.1 -3.6 22.2 -1.6 1.8 1.1 1.5 1.4 -4 2.9 -6 1.7 -13 5.8 -13 7.6 0 2.1 3.4 1.8 8.2 -0.6 3.5 -1.8 5.5 -2.1 12.7 -1.7 7.4 0.3 9.7 0.9 16.2 4.1 6.9 3.3 20.3 13.9 15.4 12.2 -3.9 -1.4 -12.1 -1.7 -19.4 -0.7 -5.6 0.8 -9.7 2.2 -16.3 5.7 -7.2 3.7 -9.8 4.6 -13.2 4.4 -5.1 -0.3 -6.6 0.5 -6.6 3.6 0 4 5.3 4.6 14.9 1.6 3.4 -1 6.1 -1.6 6 -1.2 -0.1 1.6 -11.2 9.6 -18.3 13.2 -11 5.5 -15.7 5 -17.2 -1.9 -0.3 -1.5 -0.7 -3.1 -0.7 -3.5 -0.1 -0.4 -1.8 0.4 -3.7 1.9 -7.1 5.4 -23.7 11.4 -31.5 11.4 -2.8 0 -2.7 -0.1 1.9 -3z"/>
  <path d="M301 168.1 c-9.6 -2.1 -16 -4.5 -16 -6 0 -1.6 5.1 -1.3 9.9 0.4 l4.1 1.4 0 -3.3 c0 -2.7 0.6 -3.5 3.5 -4.9 2 -0.9 4.2 -1.7 5 -1.7 0.8 0 1.5 -0.9 1.5 -2 0 -1.1 0.5 -2 1 -2 0.6 0 1 -1.4 1 -3.1 0 -4 -5.6 -9.9 -9.4 -9.9 -1.6 0 -2.6 -0.6 -2.6 -1.5 0 -0.8 -0.4 -1.5 -1 -1.5 -1.3 0 -1.3 -5.6 0 -8.1 0.6 -1.1 2.1 -1.9 3.5 -1.9 1.7 0 2.5 -0.6 2.5 -1.8 0 -1.9 4.7 -5.2 7.4 -5.2 0.9 0 1.6 -0.4 1.6 -1 0 -0.5 1.1 -1 2.5 -1 1.4 0 2.5 -0.4 2.5 -0.9 0 -1.2 13.9 -5.8 21 -7 3 -0.5 4.5 -0.9 3.3 -1 -1.2 0 -4.8 -0.8 -8 -1.6 -3.1 -0.8 -8.1 -1.5 -11 -1.5 -4.6 0 -5.3 -0.3 -5.3 -2 0 -1.9 0.5 -2 7.4 -1.5 4 0.2 9.4 0.9 12 1.5 6.1 1.3 17.6 6.6 17.6 7.9 0 1.5 -7.7 1.4 -8.3 -0.1 -0.4 -1 -0.8 -1 -1.4 -0.1 -0.4 0.6 -3.7 1.8 -7.3 2.7 -17.3 4 -35.8 13.7 -37.2 19.5 -0.2 0.9 1.5 1.9 4.6 3 5.9 1.9 8.6 5.3 9.3 11.2 0.6 5.6 -2.4 10.4 -8.6 13.8 -2.4 1.3 -3.9 2.7 -3.4 3.2 0.8 0.8 11.7 3.7 20.8 5.5 2.7 0.6 2.8 0.7 1 1.4 -3.4 1.4 -14.6 1 -23.5 -0.9z"/>
  <path d="M267.5 156.4 c-10.3 -4.3 -23.3 -8.2 -32.7 -9.8 -5.6 -1 -5.1 -3.6 0.7 -3.6 5 0 21.8 4.5 22.3 6 0.2 0.6 1.4 1 2.6 1 3.1 0 8.6 2 8.6 3.1 0 0.5 1.1 0.9 2.5 0.9 2 0 2.5 0.5 2.5 2.5 0 1.4 -0.1 2.5 -0.2 2.5 -0.2 -0.1 -3 -1.2 -6.3 -2.6z"/>
  <path d="M205 149.4 c0 -2.1 8.1 -8.3 15.5 -11.9 4.4 -2.2 11 -4.2 18 -5.6 12.4 -2.4 15.9 -3.5 15.1 -4.8 -0.3 -0.4 -1.9 -1.1 -3.5 -1.4 -7.3 -1.5 -2.9 -8.1 9.8 -14.3 4.2 -2.1 8.9 -5.3 10.4 -7.1 5.5 -6.4 13.3 -8.4 21.5 -5.7 3.4 1.2 6.4 1.4 12.4 0.9 7.4 -0.7 7.8 -0.6 7.8 1.3 0 1.8 -0.9 2.1 -8.8 2.7 -7.1 0.5 -9.6 0.4 -12.8 -1 -4 -1.7 -12.4 -1.3 -12.4 0.6 0 0.5 -1.1 0.9 -2.5 0.9 -2 0 -2.5 0.5 -2.5 2.5 0 1.6 -0.6 2.5 -1.5 2.5 -0.8 0 -1.5 0.6 -1.5 1.3 0 0.6 -2.6 2.3 -5.8 3.7 -3.1 1.3 -6.6 3.2 -7.6 4.2 -1.1 1 -3.1 1.8 -4.5 1.8 -2.5 0.1 -2.5 0.1 -0.7 1.5 1.1 0.8 2.8 1.5 3.8 1.5 1.5 0 1.8 0.8 1.8 4.4 0 4 -0.2 4.4 -3.2 5.4 -3.1 1 -3.1 1 1.2 0.5 2.5 -0.3 7.3 -1.1 10.8 -1.9 8.1 -1.8 12.2 -1.8 12.2 0 0 1.9 -20.1 6.5 -29.3 6.6 -2.7 0 2 2 4.8 2 4.5 0 7.5 1.1 7.5 2.6 0 1.8 -8.9 1.8 -14 0.1 -2.9 -1 -3.6 -1.8 -3.8 -4.3 l-0.3 -3.1 -5.2 0.8 c-6.1 1 -14.7 3.9 -16.5 5.6 -0.8 0.8 -0.9 1.3 -0.3 1.3 0.6 0 1.1 0.6 1.1 1.3 0 0.7 -3.7 2.4 -8.5 3.8 -6.2 1.9 -8.5 2.3 -8.5 1.3z"/>
  <path d="M266 142.7 c0 -1.1 1.2 -1.8 3.8 -2.2 10.2 -1.5 21.3 -4.8 20.1 -5.9 -0.3 -0.3 -7.1 -1.3 -10.1 -1.5 -0.5 -0.1 -0.8 -0.8 -0.8 -1.6 0 -1.2 1.3 -1.5 6 -1.5 l6 0 0 4.8 0 4.9 -5.2 1.7 c-2.9 0.9 -8.5 1.9 -12.5 2.3 -6.3 0.5 -7.3 0.4 -7.3 -1z"/>
 </g>
 <g fill="#dc3827">
  <path d="M310.5 169.3 c-10 -1 -24.5 -5.2 -38 -11.1 -20.8 -8.9 -33.1 -12.2 -45.8 -12.2 -9 0.1 -11 0.4 -17 2.9 -3.7 1.6 -6.7 2.6 -6.7 2.2 0 -1.3 6.5 -6.9 12 -10.3 7.3 -4.6 12.5 -6.5 20.7 -7.8 9.7 -1.5 18.3 -4.1 18.3 -5.4 0 -0.7 -1.5 -1.6 -3.2 -2.1 -7.5 -2.2 -3.1 -8 10.9 -14.7 3.5 -1.7 7.2 -4.3 8.7 -6.2 1.4 -1.8 4 -4.1 5.9 -5 4.3 -2 12.3 -2.1 17 -0.1 2.9 1.2 5 1.3 12.2 0.4 15.3 -1.9 38 1.5 46.1 6.8 2.1 1.3 3.6 4.2 1.6 2.9 -1.5 -0.9 -16.6 1.4 -23.1 3.5 -13.7 4.6 -26.8 11.9 -29.4 16.5 -1.1 2 1 4.4 3.8 4.4 3.2 0 8.1 4.4 9.5 8.4 2.1 6.4 -1.2 13 -7.9 16.1 -2.3 1 -4.1 2.3 -4.1 3 0 1.3 7.5 3.8 16.8 5.6 3.4 0.6 6.1 1.4 5.9 1.6 -0.6 0.5 -10.6 1 -14.2 0.6z m-28 -30.8 c9.9 -3.4 9.3 -5.5 -1.5 -5.4 -3.6 0 -9.2 0.6 -12.5 1.4 -3.3 0.8 -9.7 1.8 -14.2 2.1 -4.5 0.4 -8 1.1 -7.7 1.5 2 3.3 26.9 3.5 35.9 0.4z"/>
 </g>
 <g fill="#2d5391">
  <path d="M98.9 287.3 c11.2 -11.4 17 -20 19.7 -29.2 1.3 -4.3 1.4 -5.9 0.4 -7.9 l-1.2 -2.6 -3.5 4.2 c-4.8 5.8 -6.9 6.8 -9.4 4.6 -2.6 -2.3 -2.5 -6.4 0.1 -6.4 1.1 0 2 0.5 2 1 0 2.2 2.6 0.8 4.1 -2.3 1.4 -2.8 2.2 -3.2 5.9 -3.5 5.3 -0.4 6 0.5 6 8 0 6.9 -2.6 14.4 -8.1 22.8 -3.6 5.6 -3.7 6.1 -1.7 5.4 1.3 -0.3 3.4 -1.4 4.8 -2.4 1.4 -0.9 3.9 -2.3 5.5 -3.2 5.5 -2.6 8 -4.3 9.3 -6 0.8 -1.2 2.6 -1.8 5 -1.8 l3.7 0.1 -4.5 4.1 c-9.1 8.3 -27 18.9 -38.8 23.2 -4 1.4 -7.9 2.6 -8.6 2.6 -0.8 0 3.4 -4.8 9.3 -10.7z"/>
  <path d="M124 265.6 c0 -2.4 0.3 -4.6 0.8 -4.8 1.7 -0.7 9.2 -18.9 10.4 -25.1 0.7 -3.7 1.6 -6.7 2 -6.7 0.5 0 0.8 -0.7 0.8 -1.5 0 -0.8 0.9 -2 2 -2.7 1.1 -0.7 2 -1.8 2 -2.5 0 -0.7 0.4 -1.3 0.9 -1.3 0.5 0 1.1 -0.9 1.4 -2 0.4 -1.5 1.4 -2 4.1 -2 3.4 0 3.6 0.2 3.6 3.4 0 1.9 -0.4 3.8 -1 4.1 -0.5 0.3 -1 -0.3 -1 -1.4 0 -3.3 -1.4 -2.5 -5.8 3.4 -3.2 4.2 -4.5 7.3 -5.7 12.7 -0.8 3.9 -3.5 11.4 -6 16.6 -2.6 5.1 -4.4 9.6 -4.2 9.9 0.9 0.8 8.8 -7.8 12.3 -13.4 3.9 -6 7 -13.6 8.5 -20.4 0.7 -3.3 1.6 -4.9 2.6 -4.9 1.3 0 1.5 0.9 1 5.5 -0.7 6.9 -3.5 14.5 -5.3 14.5 -0.8 0 -1.4 1.1 -1.4 2.5 0 3 -2.6 8.5 -4 8.5 -0.6 0 -1 0.6 -1 1.3 0 1.9 -3.3 4.7 -5.3 4.7 -1 0 -1.7 0.8 -1.7 1.8 0 2.8 -2.1 4.2 -6.2 4.2 l-3.8 0 0 -4.4z"/>
  <path d="M242.6 266.6 c-2.4 -2.2 -3.6 -4.2 -3.6 -6 0 -1.4 -0.4 -2.6 -1 -2.6 -0.5 0 -1 -1.6 -1 -3.5 0 -1.9 -0.4 -3.5 -1 -3.5 -0.5 0 -1 -1.5 -1 -3.4 0 -2.8 0.4 -3.5 2.3 -3.9 l2.2 -0.4 -2.3 -0.2 c-3.7 -0.2 -4.8 -2.1 -6.1 -11 -1.5 -9.8 -0.7 -20.1 1.5 -20.1 0.8 0 1.4 -0.7 1.4 -1.5 0 -1 1.1 -1.5 3.5 -1.5 2.4 0 3.5 0.5 3.5 1.5 0 0.8 -0.7 1.5 -1.5 1.5 -0.8 0 -2.4 0.9 -3.5 2 -2.3 2.3 -2.7 9.5 -0.9 19.7 0.9 5.3 1.4 6.2 2.5 5.2 2 -1.6 5.4 -13.3 5.4 -18.5 0 -3.8 0.3 -4.4 2.1 -4.4 2.1 0 2.1 0.3 1.6 7.3 -0.5 5.5 -0.4 6.5 0.4 4 0.5 -1.8 1.6 -3.3 2.4 -3.3 0.8 0 1.5 -0.9 1.5 -2 0 -1.1 0.5 -4 1.2 -6.5 0.9 -3.4 1.7 -4.5 3.1 -4.5 1.7 0 1.9 0.5 1.4 3.8 -0.7 4.2 -9.3 22.2 -10.7 22.2 -0.5 0 -1.1 -0.8 -1.3 -1.7 -0.4 -1.7 -0.5 -1.7 -0.6 0 0 0.9 -0.8 1.7 -1.6 1.7 -0.8 0 -1.5 0.5 -1.5 1 0 0.6 0.7 1 1.5 1 2.2 0 1.9 1.3 -1.5 5.4 l-2.9 3.8 1.9 4.9 c1.1 2.7 3.2 7.3 4.7 10.2 3.7 6.9 3.6 6.7 2.5 6.7 -0.6 0 -2.7 -1.5 -4.6 -3.4z"/>
  <path d="M143 262.8 c0.1 -2.6 1.2 -4.4 5.6 -8.8 3.8 -3.8 7 -8.5 10.4 -15.4 2.8 -5.5 5 -10.7 5 -11.8 0 -1.2 0.7 -1.8 2.1 -1.8 1.9 0 2.1 0.4 1.5 3.8 -1 5.3 -9.7 23.1 -13.6 27.5 -1.7 2 -5 5.1 -7.1 6.8 l-3.9 3.1 0 -3.4z"/>
  <path d="M230.9 254.8 c-4.2 -5.7 -6.6 -11.1 -8.9 -20.4 -2.4 -9.4 -2.5 -10.4 -0.2 -10.4 1.3 0 2.1 1.7 3.5 7.3 0.9 4 1.7 8.1 1.7 9 0 0.9 0.5 1.7 1 1.7 0.6 0 1 0.9 1 2 0 1.1 0.5 2 1 2 0.6 0 1 1.4 1 3 0 2.3 0.4 3 2 3 1.6 0 2 0.7 2 3.5 0 1.9 -0.2 3.5 -0.5 3.5 -0.3 0 -1.9 -1.9 -3.6 -4.2z"/>
  <path d="M103 244.7 c0 -1.9 0.9 -6.9 2 -11.2 1.1 -4.3 2 -10.1 2 -12.9 0 -2.8 0.5 -6.8 1.1 -8.9 1.2 -4.5 6.7 -11 10.8 -12.7 1.6 -0.6 4.3 -3.1 6.1 -5.6 3.7 -5.2 14 -13.7 22.5 -18.7 6.6 -3.8 17.4 -7.7 21.4 -7.7 2.6 0 2.6 0 -1 3.3 -9.1 8.2 -19.1 23.4 -21.8 33.2 -1.6 5.8 -1.4 6.7 0.9 6 1.6 -0.5 2 -0.2 2 1.9 0 2.3 -0.4 2.6 -3.5 2.6 l-3.5 0 0 -5.5 c0 -5.6 3.6 -18.5 5.1 -18.5 0.5 0 0.9 -0.6 0.9 -1.4 0 -0.8 0.6 -2.1 1.3 -2.8 0.7 -0.7 1.6 -2.1 2 -3 0.3 -1 1.3 -1.8 2.2 -1.8 0.8 0 1.5 -0.8 1.5 -1.7 0 -0.9 0.8 -2.5 1.8 -3.6 1.6 -1.9 1.6 -2 -0.5 -0.8 -1.2 0.6 -3.5 1.1 -5.2 1.1 -2.4 0 -3.1 0.4 -3.1 2 0 1.1 -0.7 2 -1.5 2 -0.8 0 -1.5 0.5 -1.5 1 0 0.6 -0.9 1 -2 1 -1.1 0 -2 0.7 -2 1.5 0 0.9 -0.9 1.5 -2.5 1.5 -1.8 0 -2.5 0.5 -2.5 1.9 0 1 -1.7 3.4 -3.8 5.3 -2.1 1.9 -4.2 4.2 -4.5 5.1 -0.4 1 -1.3 1.7 -2.2 1.7 -0.8 0 -1.5 0.6 -1.5 1.3 0 1.3 -5.4 4.7 -7.6 4.7 -0.8 0 -1.4 0.6 -1.4 1.3 0 0.7 -0.9 3 -2 5.2 -1.2 2.4 -2 5.9 -2 9 0 2.7 -0.9 8.7 -2 13.3 -1.1 4.6 -2 9.6 -2 11.3 0 2.2 -0.5 2.9 -2 2.9 -1.6 0 -2 -0.7 -2 -3.3z"/>
  <path d="M219.6 219.8 c-1.2 -4.5 -0.7 -6.8 1.4 -6.8 1.7 0 2 0.7 2 4.5 0 4.9 -2.3 6.4 -3.4 2.3z"/>
  <path d="M163.4 215 c-0.5 -2.1 -1.2 -3 -2.5 -3 -1.1 0 -1.9 -0.4 -1.9 -1 0 -0.5 -1.6 -1 -3.5 -1 -2.3 0 -3.5 -0.5 -3.5 -1.4 0 -2.1 4.6 -2.8 8.3 -1.2 6.1 2.5 10.4 10.6 5.7 10.6 -1.5 0 -2.2 -0.9 -2.6 -3z"/>
  <path d="M216.6 202.3 c-1 -3.2 -3.6 -8.4 -5.7 -11.5 -2.8 -4.1 -3.5 -5.8 -2.4 -5.8 0.8 0 1.5 -0.4 1.5 -1 0 -0.5 -0.7 -1 -1.5 -1 -1 0 -1.5 -1 -1.5 -3 l0 -3.1 3.7 2.6 c4.5 3 5 3.1 5.8 0.6 0.3 -1.1 1.6 -2.1 2.8 -2.3 2 -0.3 1.9 -0.6 -1.7 -4 -2.2 -2 -5.9 -4.2 -8.3 -4.8 -2.4 -0.7 -4.3 -1.7 -4.3 -2.2 0 -1.4 13 -0.2 17.2 1.5 5.2 2.2 9.5 7.8 11.9 15.7 2.3 7.8 3.6 8.7 9.8 7 5.9 -1.6 9.4 0.5 11.5 6.7 2.2 6.3 2.1 8.3 -0.4 8.3 -1.2 0 -2 -0.7 -2 -1.7 0 -0.9 -0.9 -3.6 -2.1 -5.9 l-2 -4.3 -5 0.6 c-3.3 0.4 -4.9 0.2 -4.9 -0.6 0 -0.6 -1.5 -1.1 -3.5 -1.1 -3.4 0 -3.4 -0.1 -4.1 -5 -0.4 -2.7 -1 -5 -1.4 -5 -1.1 0 -3 -4.8 -3 -7.5 0 -1.6 -0.6 -2.5 -1.5 -2.5 -1 0 -1.5 1.1 -1.5 3.5 0 2.3 -0.5 3.5 -1.4 3.5 -0.7 0 -1.9 1.4 -2.6 3 -1 2.4 -1.9 3 -4.1 3 -1.9 0 -2.9 0.5 -2.9 1.5 0 0.8 0.7 1.5 1.5 1.5 0.9 0 1.8 1.2 2.2 3 0.3 1.7 0.9 3 1.3 3 0.9 0 3 7.1 3 10.4 0 4.6 -2.6 2.8 -4.4 -3.1z"/>
  <path d="M195.5 176 c-5.2 -3.1 -5.6 -3.5 -3.4 -3.8 3.1 -0.4 12.1 2.9 12.7 4.6 0.2 0.6 -0.3 1.2 -1.1 1.2 -0.9 0 -1.7 0.3 -1.9 0.8 -0.1 0.4 -3 -0.8 -6.3 -2.8z"/>
 </g>
 <g fill="#1f4687">
  <path d="M105.8 284.2 c-0.4 -1.4 0.7 -3.8 3.5 -7.4 4.5 -6 9.4 -15.7 10.3 -20.6 0.4 -1.9 1.4 -3.6 2.3 -3.9 5.5 -1.6 8.1 -3.4 8.1 -5.5 0 -1.2 0.7 -2.9 1.6 -3.9 0.9 -1 2.4 -4.8 3.3 -8.6 1.4 -5.6 2.1 -6.9 3.9 -7.1 1.6 -0.2 2.2 -1 2.2 -2.8 0 -1.3 0.4 -2.4 0.9 -2.4 0.5 0 1.2 -1.1 1.5 -2.5 0.6 -2.2 1.2 -2.5 5 -2.5 5 0 5.6 0.8 5.6 7.5 0 3.4 0.4 4.4 2 4.8 1.1 0.3 2.3 0.1 2.6 -0.4 0.3 -0.5 1.4 -0.9 2.4 -0.9 1 0 2.2 -0.9 2.5 -2 0.4 -1.1 1.5 -2 2.7 -2 1.8 0 1.9 0.4 1.4 3.8 -0.4 2 -2.9 8.2 -5.6 13.7 -4.2 8.5 -6.5 11.5 -14.7 20.1 -10.5 10.8 -13.9 13.7 -21.8 17.9 -9.8 5.4 -10.8 5.8 -15 6.3 -3.6 0.4 -4.3 0.1 -4.7 -1.6z m28.8 -23.4 c8.1 -8.8 14.4 -22.1 15.1 -32.2 0.3 -4.1 0.2 -7.6 -0.4 -7.9 -0.5 -0.3 -2.9 2.2 -5.4 5.6 -3.4 4.7 -4.8 7.8 -5.8 12.7 -0.6 3.6 -3.4 11.1 -6.2 16.7 -2.7 5.6 -4.9 10.5 -4.9 10.8 0 1.6 2.4 -0.2 7.6 -5.7z"/>
  <path d="M104.9 256.3 c-2.1 -2.5 -1.6 -14.3 1.1 -25.5 1.5 -6.6 2.7 -9.8 3.6 -9.8 1.8 0 1.8 4.9 -0.1 11.9 -0.9 3.7 -1.1 6 -0.4 7.2 1.3 2.6 5 4.9 7.6 4.9 1.4 0 2.3 0.6 2.3 1.5 0 0.8 -0.6 1.5 -1.4 1.5 -0.8 0 -2.3 1.5 -3.4 3.3 -1.2 1.7 -3.4 4 -5 4.9 -2.8 1.7 -3.1 1.7 -4.3 0.1z"/>
  <path d="M141.6 203.8 c0.4 -5.7 1.5 -13.1 2.4 -16.5 1 -3.5 1.4 -6.3 1 -6.3 -0.4 0 -1 0.7 -1.4 1.5 -0.3 0.8 -1.2 1.5 -2 1.5 -0.8 0 -1.6 0.5 -1.8 1.1 -0.2 0.6 -1.9 0.9 -3.8 0.7 l-3.5 -0.3 6.5 -4.9 c9.4 -7 18.1 -11.1 28 -13.1 l3.5 -0.7 -4.6 4.8 c-5.6 6 -10.8 12.6 -14.2 18.1 -3 4.8 -6.7 15.1 -6.7 18.8 l0 2.5 3.3 -2 c4.2 -2.6 6.7 -2.6 6.7 0 0 1.3 -0.7 2 -1.9 2 -1 0 -2.1 0.7 -2.5 1.5 -0.4 1 -2 1.5 -5.1 1.5 l-4.6 0 0.7 -10.2z"/>
  <path d="M109 210.5 c1.7 -4.4 4.1 -7.4 7.9 -9.6 2 -1.2 5.5 -4.2 7.8 -6.8 l4.3 -4.6 0 3.8 c0 2.6 -0.4 3.7 -1.5 3.7 -0.8 0 -1.5 0.9 -1.5 2 0 1.1 -0.7 2 -1.5 2 -0.8 0 -1.5 0.4 -1.5 0.9 0 0.5 -0.9 1.3 -2 1.6 -2.6 0.8 -6.7 4.9 -7.5 7.5 -0.4 1.3 -1.5 2 -3 2 -2.2 0 -2.4 -0.3 -1.5 -2.5z"/>
  <path d="M160 212 c0 -0.5 -0.7 -1 -1.5 -1 -0.8 0 -1.5 -0.9 -1.5 -2 0 -2.6 2.4 -2.6 6.1 0.1 3.7 2.6 3.7 3.9 -0.1 3.9 -1.6 0 -3 -0.4 -3 -1z"/>
 </g>
 <g fill="#203d7f">
  <path d="M242.6 266.9 c-2.3 -1.8 -2.4 -2.2 -1.1 -3.6 0.9 -0.8 1.7 -1.4 1.9 -1.2 4.9 6.5 4.5 9 -0.8 4.8z"/>
  <path d="M120 255.1 c0 -6.1 -0.7 -7.1 -5.2 -7.1 -3 0 -4.6 -0.7 -6.9 -2.9 -3.4 -3.4 -3.7 -6.7 -1.4 -15.1 0.8 -3 1.5 -8.1 1.5 -11.3 0 -8.6 3.3 -14.1 11.5 -19.2 1.7 -1 3.7 -2.8 4.5 -3.9 6.8 -9.6 19.2 -19 33.1 -25 1.9 -0.8 5.5 -1.8 8 -2.1 l4.4 -0.6 -2.3 2 c-1.3 1.1 -3 1.7 -3.8 1.4 -2.1 -0.8 -10.6 2 -11.1 3.7 -0.2 0.8 -1.1 2.9 -1.8 4.5 -3.9 8.2 -7.7 31.5 -5.1 31.5 0.5 0 1.7 -0.7 2.7 -1.6 3 -2.7 10.2 -3 14.2 -0.5 4.1 2.5 5.7 5.8 5.7 11.9 0 5 -2.4 13.4 -3.2 11.1 -0.4 -1.2 -0.9 -1.2 -3.1 0 -1.6 0.8 -4 1.2 -6.1 0.8 -2.7 -0.4 -3.8 -0.2 -4.6 1.1 -0.7 1.2 -0.8 0.2 -0.4 -3.5 1.1 -8.8 -1.7 -13.8 -4.4 -7.9 -0.6 1.3 -2.4 3.9 -4 5.7 -1.8 2.1 -3.4 5.6 -4.2 8.9 -0.6 3 -2.1 6.8 -3.2 8.3 -1.1 1.6 -1.8 3.7 -1.5 4.7 0.3 1.2 -0.5 2.2 -3 3.4 -1.8 0.9 -4 1.6 -4.8 1.6 -0.8 0 -2 0.9 -2.7 2 -1.9 3 -2.8 2.4 -2.8 -1.9z"/>
  <path d="M231 232.5 c0 -4 2.4 -4.9 3.4 -1.2 1 3.7 0.7 4.7 -1.4 4.7 -1.6 0 -2 -0.7 -2 -3.5z"/>
  <path d="M194 174.7 c-2.3 -1.5 -3 -2.3 -1.9 -2.5 2.3 -0.4 9.2 2.1 9.7 3.6 0.6 1.9 -3.9 1.3 -7.8 -1.1z"/>
 </g>
 <g fill="#372d6e">
  <path d="M243.4 267.1 c-5.8 -4.1 -13.7 -13.4 -16.6 -19.4 -3.1 -6.3 -6.8 -20.5 -6.8 -26.1 -0.1 -6.9 -2.7 -19.3 -5.3 -24.9 -3 -6.7 -13.5 -18 -20.2 -21.8 -2.7 -1.6 -4.3 -2.9 -3.4 -2.9 3.9 0 14.8 4.2 19.4 7.5 l4.9 3.5 1.3 -2.5 c0.8 -1.4 2 -2.5 2.8 -2.5 4.1 0 -1.6 -5.3 -9.5 -8.9 l-4.5 -2.1 6.3 0 c6.4 0 12.2 1.8 15.5 4.8 2.6 2.3 6.4 10 7.2 14.5 0.9 4.8 3.1 5.9 10 5.1 4.5 -0.6 5.9 -0.4 7.5 1.1 2.5 2.2 5 10.4 5 16 0 8.6 -5.9 22.2 -14.6 33.7 l-4.4 5.8 2.6 6.7 c1.3 3.7 3.6 8.7 5 11 1.4 2.4 2.3 4.3 2.1 4.3 -0.2 0 -2.2 -1.3 -4.3 -2.9z m-4 -30.8 c3.1 -6.5 4.7 -16 3.3 -20.2 -1.4 -4.1 -3.9 -5.1 -6.6 -2.6 -2.4 2.1 -3.1 8.1 -2 16.3 1.6 11.5 2.4 12.5 5.3 6.5z m-10.8 -10.3 c1.1 0 1.4 -1.6 1.4 -7.3 0 -8.4 0.8 -9.7 6.2 -9.7 2.8 0 3.8 -0.4 3.8 -1.6 0 -1.3 1 -1.5 6 -1.2 3.3 0.1 6 0 6 -0.4 0.1 -5.5 0 -5.8 -2.4 -5.8 -3.7 0 -5.6 -1 -5.6 -3 0 -1.3 -0.5 -1.7 -2 -1.3 -3.2 0.8 -9 -0.6 -9 -2.2 0 -0.8 -0.4 -1.5 -0.8 -1.5 -0.5 0 -1.5 -2.6 -2.2 -5.7 -1.5 -6.9 -5 -11.3 -5 -6.3 0 1.5 -0.7 2 -2.5 2 -1.8 0 -2.5 0.5 -2.5 2 0 1.6 -0.7 2 -3 2 -2.4 0 -2.8 0.3 -2.3 1.8 0.4 0.9 1.2 2.3 1.9 2.9 2.2 2.2 5.3 13.6 6.4 23 0.5 5 1.2 9.7 1.4 10.5 0.2 0.7 0.8 2.7 1.2 4.3 l0.8 3 0.4 -2.7 c0.2 -1.6 1 -2.8 1.8 -2.8z"/>
 </g>
 <g fill="#2b2064">
  <path d="M225.4 237.3 c-3 -5.6 -4.6 -12.1 -5.9 -24.6 -0.8 -7.2 -3.7 -16 -7.1 -21 -1.9 -3 -2.3 -4.5 -1.8 -7.2 0.5 -3 0.9 -3.3 2.4 -2.5 2.8 1.5 4 1.2 4 -1 0 -1.5 0.7 -2 2.5 -2 1.4 0 2.5 -0.6 2.5 -1.2 -0.1 -2.3 -6.4 -8.5 -9.5 -9.3 -5.1 -1.3 -0.6 -1.8 5.1 -0.6 5.5 1.3 10.8 4.6 9.9 6.2 -0.4 0.5 0 0.9 0.8 0.9 1.7 0 4.2 4.9 5.2 10 1.3 6.9 3 7.8 11.6 6.5 4.2 -0.7 4.7 -0.5 7.1 2.4 1.9 2.1 2.9 4.8 3.4 8.8 0.6 5.1 0.5 5.8 -1.5 7.5 -2.1 1.6 -2.5 1.6 -5.1 0.3 -3.3 -1.7 -6 -1.9 -6 -0.6 0 0.6 0.9 2.5 2 4.4 1.8 3 1.9 4.1 1 8.2 -1.3 5.7 -3.8 12 -4.6 11.3 -0.2 -0.3 0.2 -2.5 1 -4.9 1.9 -5.3 2 -10.9 0.4 -14.4 -0.9 -1.9 -1.9 -2.5 -4.3 -2.5 -5 0 -5.7 1.7 -5.3 12.3 0.2 5.3 0 9.3 -0.4 9 -0.5 -0.2 -0.8 -1 -0.8 -1.8 0 -0.8 -0.5 -1.7 -1.2 -2.1 -0.8 -0.5 -0.9 0.8 -0.5 4.9 0.7 5.3 0.2 8.7 -1.2 8.7 -0.3 0 -2 -2.6 -3.7 -5.7z m25.6 -41.2 c0 -0.5 -0.9 -1.1 -2 -1.4 -2.2 -0.6 -2.8 0.8 -0.7 1.6 1.9 0.8 2.7 0.8 2.7 -0.2z"/>
 </g>
 <g fill="#026d3c">
  <path d="M167 137 c0 -0.6 -3.5 -4.7 -7.7 -9.1 -12.7 -13.3 -24.8 -19.3 -46 -22.9 -18.5 -3.1 -24.9 -4.8 -32.8 -8.7 -6.3 -3.1 -15.5 -10.5 -15.5 -12.5 0 -0.4 2.8 0.8 6.3 2.7 6.3 3.5 16.8 7.5 19.4 7.5 1 0 0.7 -0.9 -1.1 -3 -1.4 -1.7 -3 -5 -3.6 -7.3 -0.6 -2.3 -2.1 -6.9 -3.2 -10.2 -3 -8.7 -2.8 -24.5 0.3 -24.5 0.5 0 2.8 1.4 5 3.2 3.7 3 5 3.3 15.5 4.5 20.1 2.1 29 8.1 38 25.6 2.6 5.1 5.9 10.8 7.4 12.7 4.2 5.3 9.4 15.3 14.3 27.5 5.6 13.7 6.1 15.5 4.8 15.5 -0.6 0 -1.1 -0.5 -1.1 -1z m-38 -42.5 c0 -0.2 -1.5 -1.2 -3.2 -2.1 -6.3 -3.3 -16.4 -10.4 -22.8 -16.3 -3.6 -3.3 -6.7 -5.8 -6.9 -5.6 -1.8 1.9 5.3 13.1 10.7 16.9 6.6 4.5 22.2 9.6 22.2 7.1z"/>
 </g>
</svg>